<svg version="1.1" xmlns="http://www.w3.org/2000/svg" viewBox="0 0 760.1640625 621.7734375" width="1520.328125" height="1243.546875" filter="invert(93%) hue-rotate(180deg)">
  <!-- svg-source:excalidraw -->
  
  <defs>
    <style>
      @font-face {
        font-family: "Virgil";
        src: url("https://excalidraw.com/Virgil.woff2");
      }
      @font-face {
        font-family: "Cascadia";
        src: url("https://excalidraw.com/Cascadia.woff2");
      }
    </style>
  </defs>
  <g transform="translate(222.640625 202.2890625) rotate(0 44.798828125 72.984375)" stroke="none" fill="#000000"><path d="M 1.65,0 Q 1.65,0 1.70,1.65 1.76,3.30 1.80,4.92 1.85,6.53 1.81,8.51 1.78,10.49 1.71,13.34 1.65,16.19 1.60,19.65 1.56,23.10 1.52,26.82 1.49,30.53 1.46,34.63 1.44,38.73 1.42,43.28 1.40,47.83 1.39,52.34 1.38,56.85 1.37,60.66 1.36,64.46 1.28,68.05 1.19,71.64 0.85,75.77 0.51,79.91 -0.04,83.75 -0.59,87.60 -1.13,90.42 -1.67,93.24 -2.21,95.80 -2.76,98.37 -3.44,100.93 -4.12,103.49 -4.91,105.95 -5.69,108.41 -6.49,110.67 -7.29,112.94 -8.02,114.84 -8.75,116.74 -9.40,118.35 -10.04,119.97 -10.74,121.40 -11.43,122.84 -12.18,124.15 -12.93,125.47 -13.66,126.63 -14.39,127.79 -15.34,128.87 -16.29,129.95 -17.40,130.93 -18.50,131.90 -19.65,132.82 -20.79,133.73 -22.76,134.86 -24.73,136.00 -25.88,136.75 -27.03,137.51 -29.22,138.46 -31.40,139.41 -32.68,140.01 -33.95,140.61 -35.06,141.13 -36.17,141.66 -37.95,142.54 -39.72,143.42 -41.55,144.16 -43.37,144.89 -44.91,145.49 -46.45,146.09 -47.84,146.51 -49.23,146.93 -50.50,147.33 -51.78,147.72 -53.31,148.06 -54.84,148.40 -56.58,148.67 -58.32,148.93 -60.18,149.01 -62.05,149.09 -63.93,149.10 -65.81,149.12 -67.96,149.03 -70.12,148.95 -71.81,148.22 -73.51,147.48 -75.15,145.14 -76.79,142.80 -77.55,141.03 -78.31,139.27 -78.76,136.88 -79.22,134.49 -79.48,131.42 -79.74,128.35 -79.81,124.78 -79.87,121.21 -79.87,117.46 -79.87,113.70 -79.85,109.59 -79.82,105.48 -79.80,101.21 -79.78,96.94 -79.22,92.41 -78.66,87.87 -77.61,84.00 -76.57,80.12 -75.46,77.16 -74.35,74.20 -73.03,71.42 -71.71,68.63 -70.25,66.13 -68.79,63.63 -67.38,61.54 -65.96,59.45 -64.65,57.77 -63.34,56.08 -61.85,54.60 -60.36,53.13 -58.52,51.82 -56.68,50.52 -54.52,49.60 -52.37,48.69 -49.64,48.25 -46.90,47.81 -43.08,47.63 -39.26,47.46 -33.51,47.39 -27.76,47.32 -21.37,47.39 -14.98,47.46 -8.99,48.20 -3.01,48.93 3.35,50.78 9.72,52.64 16.39,55.35 23.06,58.07 29.88,61.29 36.70,64.51 43.41,68.05 50.13,71.59 57.07,75.82 64.01,80.05 68.19,82.89 72.37,85.74 76.23,88.71 80.09,91.68 83.42,94.36 86.75,97.03 89.44,99.19 92.13,101.36 94.43,103.32 96.73,105.28 99.25,107.37 101.76,109.47 104.29,111.41 106.81,113.35 109.28,115.29 111.76,117.23 114.06,118.99 116.36,120.75 118.29,122.10 120.23,123.45 121.92,124.46 123.62,125.47 125.12,126.22 126.63,126.98 128.04,127.58 129.45,128.19 130.78,128.63 132.11,129.07 133.51,129.42 134.91,129.78 136.43,130.13 137.96,130.48 139.56,130.84 141.16,131.19 142.82,131.49 144.49,131.79 146.24,131.96 148.00,132.14 149.84,132.24 151.68,132.33 153.43,132.41 155.18,132.49 156.83,132.59 158.47,132.69 160.00,132.75 161.54,132.81 162.77,132.78 164.01,132.76 165.76,132.75 167.52,132.74 167.88,132.80 168.23,132.86 168.55,133.03 168.87,133.21 169.11,133.47 169.36,133.74 169.51,134.07 169.65,134.39 169.69,134.75 169.72,135.11 169.64,135.46 169.56,135.82 169.37,136.12 169.18,136.43 168.90,136.66 168.63,136.89 168.29,137.02 167.95,137.15 167.59,137.17 167.23,137.18 166.89,137.08 166.54,136.98 166.24,136.78 165.95,136.57 165.73,136.28 165.52,135.99 165.40,135.65 165.29,135.30 165.30,134.94 165.30,134.58 165.42,134.24 165.54,133.90 165.76,133.62 165.98,133.33 166.28,133.13 166.58,132.93 166.93,132.84 167.28,132.75 167.64,132.77 168.00,132.79 168.34,132.93 168.67,133.07 168.94,133.31 169.21,133.54 169.40,133.85 169.58,134.17 169.65,134.52 169.73,134.87 169.68,135.23 169.64,135.59 169.49,135.91 169.33,136.24 169.08,136.50 168.83,136.76 168.51,136.92 168.19,137.09 167.83,137.14 167.47,137.20 167.47,137.20 167.47,137.20 165.67,137.13 163.88,137.07 162.59,136.97 161.30,136.87 159.73,136.75 158.16,136.63 156.58,136.47 154.99,136.32 153.27,136.22 151.54,136.13 149.59,136.08 147.65,136.04 145.72,135.88 143.80,135.73 142.02,135.42 140.25,135.12 138.62,134.72 137.00,134.33 135.41,133.90 133.81,133.47 132.30,132.97 130.79,132.46 129.38,131.83 127.97,131.19 126.56,130.41 125.15,129.63 123.66,128.72 122.18,127.80 120.45,126.70 118.73,125.61 116.74,124.22 114.76,122.83 112.45,121.06 110.14,119.29 107.67,117.36 105.21,115.43 102.64,113.46 100.08,111.49 97.55,109.38 95.02,107.28 92.75,105.34 90.49,103.40 87.79,101.24 85.10,99.08 81.79,96.42 78.48,93.77 74.69,90.84 70.89,87.91 66.77,85.10 62.65,82.29 55.77,78.11 48.90,73.92 42.24,70.41 35.58,66.89 28.82,63.70 22.06,60.51 15.52,57.84 8.98,55.17 2.82,53.36 -3.34,51.56 -9.17,50.84 -15.01,50.12 -21.37,50.05 -27.73,49.98 -33.43,50.05 -39.14,50.13 -42.81,50.30 -46.49,50.47 -48.91,50.83 -51.34,51.20 -53.22,51.98 -55.10,52.77 -56.76,53.95 -58.42,55.14 -59.82,56.45 -61.21,57.75 -62.48,59.35 -63.74,60.95 -65.09,62.97 -66.45,64.99 -67.84,67.39 -69.24,69.79 -70.49,72.48 -71.75,75.17 -72.79,78.01 -73.83,80.85 -74.81,84.53 -75.78,88.22 -76.27,92.58 -76.77,96.94 -76.72,101.20 -76.67,105.46 -76.60,109.55 -76.52,113.65 -76.39,117.35 -76.26,121.06 -76.02,124.46 -75.79,127.87 -75.34,130.64 -74.89,133.41 -74.27,135.30 -73.65,137.20 -73.06,138.45 -72.47,139.69 -71.52,140.92 -70.58,142.14 -69.17,142.48 -67.76,142.81 -65.90,142.81 -64.04,142.81 -62.24,142.79 -60.44,142.77 -58.98,142.68 -57.52,142.60 -56.01,142.37 -54.50,142.13 -53.26,141.90 -52.02,141.67 -50.66,141.37 -49.30,141.07 -48.02,140.78 -46.73,140.49 -44.97,139.98 -43.22,139.46 -41.52,138.95 -39.82,138.44 -38.81,138.05 -37.81,137.67 -36.66,137.27 -35.51,136.86 -34.29,136.42 -33.06,135.99 -31.13,134.94 -29.20,133.88 -28.05,133.26 -26.91,132.64 -25.21,131.40 -23.52,130.16 -22.41,129.34 -21.30,128.53 -20.30,127.77 -19.30,127.00 -18.46,126.25 -17.62,125.50 -16.82,124.50 -16.03,123.50 -15.21,122.35 -14.39,121.21 -13.60,119.96 -12.82,118.72 -12.06,117.22 -11.30,115.71 -10.54,113.89 -9.78,112.07 -8.99,109.84 -8.21,107.60 -7.44,105.20 -6.68,102.81 -6.01,100.31 -5.35,97.82 -4.81,95.28 -4.28,92.74 -3.75,89.98 -3.23,87.22 -2.69,83.45 -2.15,79.69 -1.82,75.63 -1.50,71.58 -1.43,68.02 -1.36,64.46 -1.37,60.66 -1.38,56.85 -1.39,52.34 -1.40,47.83 -1.42,43.28 -1.44,38.73 -1.46,34.63 -1.49,30.53 -1.52,26.82 -1.56,23.10 -1.60,19.65 -1.65,16.19 -1.71,13.34 -1.78,10.49 -1.81,8.51 -1.85,6.53 -1.80,4.92 -1.76,3.30 -1.70,1.65 -1.65,0 -1.63,-0.19 -1.61,-0.39 -1.53,-0.58 -1.46,-0.77 -1.35,-0.93 -1.24,-1.09 -1.09,-1.23 -0.94,-1.36 -0.76,-1.45 -0.58,-1.55 -0.39,-1.59 -0.19,-1.64 0.00,-1.64 0.19,-1.64 0.39,-1.59 0.58,-1.55 0.76,-1.45 0.94,-1.36 1.09,-1.23 1.24,-1.09 1.35,-0.93 1.46,-0.77 1.53,-0.58 1.61,-0.39 1.63,-0.19 1.65,0.00 1.65,0.00 L 1.65,0 Z"/></g><g transform="translate(439.17578125 261.46484375) rotate(0 -59.09375 49.421875)" stroke="none" fill="#000000"><path d="M 1.56,-0.05 Q 1.56,-0.05 1.60,2.37 1.65,4.79 1.78,7.54 1.91,10.28 2.21,12.92 2.50,15.55 2.75,18.20 3.00,20.85 3.10,23.75 3.20,26.65 3.24,29.86 3.28,33.06 3.30,38.53 3.31,43.99 3.32,50.57 3.32,57.15 3.32,63.52 3.32,69.89 3.32,77.89 3.32,85.90 3.23,94.70 3.13,103.50 2.49,113.06 1.85,122.61 0.07,133.30 -1.71,143.99 -4.23,153.83 -6.74,163.66 -9.48,171.70 -12.21,179.73 -15.75,187.87 -19.29,196.02 -23.84,204.87 -28.39,213.73 -33.54,222.39 -38.69,231.05 -44.05,239.10 -49.40,247.15 -55.06,254.25 -60.72,261.34 -67.10,267.33 -73.48,273.32 -80.77,278.38 -88.06,283.44 -95.77,287.58 -103.48,291.72 -111.44,294.82 -119.41,297.93 -129.56,300.11 -139.71,302.29 -164.80,303.68 -189.89,305.08 -204.11,305.67 -218.32,306.25 -229.86,306.31 -241.40,306.37 -262.62,303.13 -283.84,299.89 -296.40,297.74 -308.97,295.60 -321.02,293.20 -333.06,290.80 -345.07,288.10 -357.07,285.40 -367.82,282.59 -378.56,279.77 -385.96,277.38 -393.37,274.99 -399.02,272.61 -404.66,270.23 -409.84,267.37 -415.02,264.52 -418.87,261.50 -422.72,258.48 -424.85,255.76 -426.98,253.05 -428.02,249.70 -429.05,246.35 -429.14,241.48 -429.23,236.60 -427.48,230.84 -425.74,225.09 -421.10,219.21 -416.45,213.32 -408.90,207.91 -401.35,202.49 -388.54,197.58 -375.73,192.66 -356.40,188.80 -337.07,184.93 -316.89,182.85 -296.70,180.76 -276.16,179.88 -255.61,178.99 -228.31,181.02 -201.01,183.05 -171.75,188.39 -142.49,193.73 -116.75,200.53 -91.01,207.34 -55.55,219.89 -20.09,232.44 0.45,240.35 20.99,248.26 40.10,256.34 59.20,264.42 77.10,272.44 95.00,280.45 108.76,286.94 122.52,293.42 133.43,298.44 144.34,303.45 155.66,308.65 166.98,313.85 177.61,318.81 188.24,323.77 197.70,327.98 207.16,332.20 214.66,335.35 222.16,338.50 227.96,340.60 233.77,342.70 238.97,344.10 244.18,345.50 248.90,346.45 253.63,347.40 257.75,347.86 261.87,348.31 265.49,348.45 269.12,348.59 271.96,348.23 274.80,347.88 277.31,346.66 279.81,345.44 282.22,343.34 284.62,341.25 287.00,338.44 289.38,335.62 291.57,332.32 293.76,329.02 295.60,325.51 297.43,322.00 298.97,318.27 300.51,314.53 301.70,310.94 302.89,307.35 303.83,304.06 304.78,300.76 305.59,297.54 306.40,294.32 307.07,290.68 307.74,287.03 308.24,282.85 308.74,278.67 309.01,273.71 309.27,268.76 309.26,265.93 309.25,263.09 308.58,260.43 307.91,257.78 306.28,255.21 304.65,252.64 301.94,249.83 299.23,247.01 295.79,244.15 292.34,241.29 288.10,238.52 283.86,235.74 278.80,232.93 273.73,230.11 267.45,227.54 261.16,224.96 252.94,222.61 244.72,220.26 235.13,218.11 225.55,215.95 216.45,214.34 207.35,212.74 199.02,211.87 190.69,210.99 182.36,210.42 174.04,209.84 166.33,209.48 158.62,209.12 152.18,208.97 145.75,208.82 140.84,208.75 135.92,208.69 131.55,208.66 127.18,208.63 123.09,208.70 118.99,208.78 115.53,209.11 112.07,209.45 109.22,210.10 106.37,210.74 103.96,211.67 101.56,212.59 99.59,213.57 97.62,214.54 96.00,215.50 94.38,216.46 92.97,217.49 91.57,218.51 90.33,219.55 89.09,220.58 87.81,221.78 86.52,222.97 84.92,224.52 83.31,226.08 82.39,227.22 81.46,228.37 79.23,231.59 77.00,234.81 75.28,237.08 73.56,239.35 71.80,241.69 70.03,244.03 68.79,245.90 67.54,247.77 66.21,249.73 64.87,251.70 63.37,253.89 61.86,256.08 60.55,258.11 59.25,260.14 58.09,261.99 56.93,263.85 56.06,265.40 55.19,266.95 54.54,268.21 53.90,269.47 53.40,270.46 52.91,271.44 52.36,272.62 51.81,273.80 51.35,274.90 50.89,275.99 50.04,277.00 49.20,278.01 48.37,279.21 47.55,280.42 46.78,281.44 46.01,282.46 45.10,283.83 44.19,285.19 43.16,286.70 42.13,288.21 41.44,289.43 40.75,290.66 40.18,291.57 39.61,292.49 39.00,293.40 38.40,294.32 37.25,296.03 36.11,297.74 35.46,298.65 34.81,299.55 34.05,300.49 33.29,301.43 32.50,302.36 31.71,303.28 30.81,304.25 29.92,305.21 28.94,306.16 27.97,307.11 27.00,307.97 26.03,308.84 25.09,309.65 24.14,310.46 23.22,311.25 22.29,312.04 21.40,312.80 20.51,313.56 19.61,314.27 18.72,314.97 17.82,315.63 16.92,316.28 15.59,317.31 14.26,318.34 12.68,319.54 11.09,320.74 9.63,321.74 8.16,322.73 6.88,323.50 5.59,324.27 4.57,324.92 3.54,325.58 2.50,326.19 1.45,326.80 0.21,327.57 -1.03,328.33 -2.12,328.70 -3.20,329.07 -4.35,329.11 -5.51,329.15 -6.74,329.15 -7.97,329.16 -9.69,329.00 -11.41,328.85 -12.51,327.71 -13.61,326.57 -13.73,325.43 -13.85,324.29 -13.60,322.53 -13.35,320.77 -12.79,319.80 -12.23,318.82 -11.44,317.91 -10.64,317.01 -9.68,316.13 -8.72,315.26 -6.94,314.07 -5.16,312.89 -4.25,312.14 -3.34,311.38 -2.19,310.47 -1.05,309.56 0.17,308.60 1.39,307.63 2.43,306.71 3.46,305.79 4.46,304.84 5.46,303.90 6.43,303.02 7.40,302.14 8.31,301.33 9.23,300.52 10.05,299.69 10.87,298.86 11.66,298.02 12.46,297.18 13.67,295.67 14.88,294.17 15.51,293.28 16.15,292.39 16.92,291.36 17.69,290.33 18.40,289.40 19.11,288.46 20.00,287.00 20.88,285.54 21.74,284.26 22.60,282.98 23.30,281.96 24.01,280.94 25.15,279.63 26.29,278.32 27.02,277.37 27.75,276.42 28.55,275.41 29.36,274.40 30.30,273.27 31.24,272.15 32.32,270.66 33.40,269.16 34.33,267.60 35.27,266.05 35.79,265.05 36.32,264.05 37.44,262.23 38.57,260.42 39.28,259.02 39.99,257.61 40.55,256.34 41.11,255.06 41.54,253.90 41.96,252.73 42.36,251.66 42.75,250.58 43.17,249.51 43.59,248.45 44.27,246.48 44.96,244.52 45.64,242.83 46.32,241.13 46.82,239.60 47.32,238.06 47.72,236.90 48.13,235.74 48.57,234.48 49.01,233.22 49.38,231.99 49.75,230.76 49.87,229.39 49.99,228.03 50.02,226.25 50.04,224.47 50.08,222.23 50.13,219.99 50.15,218.58 50.16,217.18 50.08,215.71 49.99,214.24 49.75,212.75 49.51,211.26 49.11,209.72 48.70,208.19 48.16,206.60 47.61,205.01 47.05,203.59 46.48,202.17 45.96,201.08 45.45,199.99 44.57,198.29 43.69,196.58 43.07,195.65 42.44,194.71 42.25,194.47 42.06,194.24 41.88,193.94 41.70,193.64 41.61,193.30 41.51,192.96 41.49,192.61 41.48,192.26 41.55,191.92 41.62,191.57 41.77,191.25 41.92,190.94 42.14,190.66 42.36,190.39 42.64,190.18 42.92,189.97 43.24,189.83 43.57,189.69 43.91,189.64 44.26,189.58 44.61,189.61 44.96,189.63 45.29,189.75 45.63,189.86 45.92,190.04 46.22,190.23 46.46,190.48 46.71,190.74 46.98,191.90 47.26,193.06 46.97,195.00 46.68,196.94 46.20,198.76 45.72,200.57 44.90,202.70 44.08,204.83 43.60,206.27 43.11,207.72 42.48,209.23 41.86,210.74 41.26,211.95 40.67,213.15 40.00,214.50 39.32,215.85 38.59,217.07 37.85,218.30 37.26,219.35 36.67,220.40 35.90,221.54 35.14,222.68 34.34,223.58 33.54,224.49 32.85,225.47 32.16,226.46 31.59,227.62 31.02,228.77 30.24,230.28 29.46,231.78 28.71,233.03 27.96,234.29 27.25,235.34 26.53,236.38 25.82,237.31 25.10,238.23 24.09,239.12 23.08,240.01 22.24,240.73 21.40,241.45 20.38,242.25 19.36,243.04 17.74,244.09 16.12,245.15 15.00,245.71 13.89,246.27 12.75,246.78 11.60,247.28 10.34,247.76 9.09,248.24 7.80,248.68 6.51,249.13 5.25,249.57 3.98,250.01 2.59,250.42 1.20,250.82 -0.15,251.17 -1.52,251.52 -2.71,251.84 -3.91,252.16 -4.98,252.42 -6.04,252.69 -7.96,252.94 -9.87,253.19 -11.24,253.24 -12.61,253.30 -13.81,252.88 -15.01,252.45 -16.12,251.08 -17.23,249.71 -17.77,247.60 -18.32,245.48 -18.36,243.00 -18.41,240.52 -18.34,237.50 -18.27,234.47 -18.19,230.29 -18.11,226.11 -18.04,221.39 -17.97,216.67 -17.73,212.04 -17.50,207.40 -16.64,202.74 -15.78,198.07 -14.06,193.34 -12.34,188.61 -9.77,183.68 -7.20,178.75 -3.80,173.78 -0.40,168.81 3.75,164.18 7.91,159.56 12.70,155.27 17.49,150.98 22.40,147.04 27.31,143.09 31.49,140.02 35.68,136.94 38.98,134.74 42.28,132.55 45.19,130.74 48.10,128.92 50.79,127.34 53.47,125.76 55.83,124.47 58.19,123.17 60.05,122.19 61.91,121.21 63.36,120.42 64.80,119.63 65.98,118.99 67.17,118.36 68.10,117.76 69.03,117.16 70.49,116.34 71.95,115.53 73.68,114.37 75.42,113.20 76.58,112.55 77.75,111.89 78.98,111.23 80.22,110.58 81.48,109.93 82.74,109.27 83.83,108.58 84.92,107.88 86.02,107.12 87.13,106.36 88.18,105.64 89.24,104.93 90.61,103.77 91.98,102.60 92.87,101.49 93.76,100.37 94.44,99.26 95.13,98.14 95.62,96.57 96.11,95.00 96.43,93.61 96.75,92.21 97.02,90.46 97.29,88.71 97.52,86.34 97.74,83.97 97.80,81.05 97.85,78.14 97.31,74.68 96.77,71.22 94.76,65.65 92.75,60.09 89.25,52.47 85.74,44.86 81.99,37.69 78.25,30.52 73.31,22.68 68.38,14.84 65.58,10.66 62.78,6.47 60.20,3.01 57.62,-0.44 54.89,-3.68 52.16,-6.92 49.24,-9.78 46.33,-12.64 43.19,-15.01 40.04,-17.39 36.37,-19.65 32.70,-21.90 28.65,-23.96 24.60,-26.01 19.64,-27.91 14.68,-29.81 8.97,-31.42 3.26,-33.03 -2.35,-34.18 -7.97,-35.33 -13.44,-36.05 -18.91,-36.77 -24.01,-37.08 -29.10,-37.39 -33.77,-37.52 -38.44,-37.65 -42.65,-37.30 -46.86,-36.95 -50.69,-35.39 -54.53,-33.82 -58.15,-30.84 -61.77,-27.85 -65.06,-23.71 -68.34,-19.58 -71.19,-14.20 -74.04,-8.83 -76.46,-1.08 -78.89,6.66 -80.83,17.03 -82.77,27.39 -84.03,39.18 -85.30,50.97 -85.93,62.04 -86.56,73.11 -86.82,83.00 -87.09,92.88 -87.21,102.85 -87.32,112.82 -87.08,123.11 -86.85,133.40 -85.97,143.91 -85.10,154.42 -83.12,168.21 -81.14,181.99 -79.74,189.74 -78.33,197.49 -77.06,203.21 -75.78,208.94 -74.85,212.90 -73.92,216.87 -72.99,220.27 -72.07,223.68 -71.25,226.23 -70.43,228.77 -69.76,230.42 -69.09,232.07 -68.59,233.09 -68.08,234.12 -66.52,230.79 -64.97,227.47 -63.74,222.84 -62.51,218.21 -61.17,210.69 -59.82,203.17 -58.74,193.47 -57.66,183.77 -57.37,172.92 -57.09,162.07 -58.43,150.51 -59.77,138.94 -63.69,127.15 -67.62,115.36 -74.07,103.74 -80.52,92.12 -89.12,80.90 -97.72,69.68 -106.47,60.53 -115.22,51.37 -123.47,44.66 -131.72,37.95 -140.86,31.94 -149.99,25.94 -159.53,20.42 -169.06,14.90 -178.97,10.30 -188.88,5.69 -198.44,2.17 -207.99,-1.33 -219.42,-4.55 -230.85,-7.76 -237.28,-9.48 -243.72,-11.20 -248.54,-12.27 -253.36,-13.35 -256.94,-14.09 -260.52,-14.83 -264.03,-15.57 -267.53,-16.31 -270.54,-16.87 -273.55,-17.43 -275.92,-17.89 -278.30,-18.35 -280.11,-18.67 -281.92,-18.99 -283.30,-19.43 -284.68,-19.88 -285.82,-21.51 -286.96,-23.15 -287.10,-25.11 -287.24,-27.08 -285.32,-29.77 -283.41,-32.46 -278.86,-36.10 -274.32,-39.74 -267.57,-44.11 -260.81,-48.48 -251.94,-53.14 -243.06,-57.81 -231.52,-62.45 -219.99,-67.09 -204.81,-71.42 -189.63,-75.74 -170.51,-79.29 -151.38,-82.83 -129.39,-85.05 -107.39,-87.27 -83.49,-88.32 -59.58,-89.37 -34.70,-89.81 -9.81,-90.25 12.08,-90.44 33.99,-90.63 51.34,-90.10 68.69,-89.57 84.00,-87.80 99.30,-86.03 113.12,-83.49 126.93,-80.95 137.90,-78.55 148.87,-76.16 159.38,-73.82 169.90,-71.47 175.63,-70.16 181.35,-68.85 185.81,-67.73 190.27,-66.60 193.29,-65.78 196.30,-64.96 198.32,-64.43 200.34,-63.91 201.73,-63.64 203.12,-63.37 204.26,-63.23 205.41,-63.09 206.72,-62.50 208.02,-61.90 208.03,-60.67 208.03,-59.43 206.30,-58.30 204.58,-57.17 202.02,-56.40 199.46,-55.63 194.80,-53.99 190.14,-52.35 182.83,-49.95 175.53,-47.55 164.67,-44.63 153.81,-41.71 139.34,-38.54 124.87,-35.37 107.20,-32.29 89.53,-29.20 69.64,-26.71 49.76,-24.22 27.97,-22.67 6.18,-21.12 -16.39,-20.60 -38.98,-20.08 -61.45,-22.03 -83.93,-23.97 -110.07,-31.66 -136.20,-39.34 -150.85,-45.06 -165.50,-50.79 -178.34,-58.72 -191.19,-66.64 -202.14,-76.60 -213.09,-86.55 -220.75,-95.93 -228.40,-105.30 -233.40,-114.02 -238.40,-122.74 -242.46,-132.70 -246.51,-142.67 -249.20,-153.18 -251.89,-163.68 -253.28,-174.69 -254.67,-185.69 -255.26,-195.50 -255.84,-205.30 -255.29,-213.01 -254.73,-220.72 -252.34,-227.49 -249.94,-234.25 -246.76,-239.09 -243.58,-243.92 -240.57,-246.39 -237.56,-248.85 -234.52,-250.00 -231.49,-251.15 -228.25,-251.31 -225.01,-251.46 -221.36,-250.11 -217.71,-248.76 -213.77,-245.53 -209.83,-242.30 -205.86,-237.67 -201.90,-233.05 -197.96,-227.20 -194.02,-221.34 -190.07,-214.13 -186.12,-206.93 -182.45,-198.67 -178.78,-190.41 -175.69,-181.60 -172.59,-172.80 -170.16,-164.35 -167.72,-155.89 -165.99,-148.00 -164.27,-140.11 -162.99,-131.53 -161.72,-122.96 -160.90,-110.86 -160.07,-98.75 -159.73,-91.35 -159.38,-83.95 -159.23,-76.25 -159.08,-68.55 -159.21,-61.09 -159.34,-53.63 -160.16,-46.61 -160.98,-39.59 -162.12,-34.13 -163.27,-28.67 -164.45,-24.52 -165.64,-20.38 -167.04,-16.36 -168.45,-12.33 -169.96,-8.47 -171.48,-4.61 -172.82,-1.36 -174.16,1.89 -175.10,3.98 -176.04,6.08 -176.63,7.44 -177.21,8.81 -177.79,10.12 -178.36,11.42 -178.58,11.82 -178.81,12.21 -178.96,12.40 -179.12,12.59 -179.32,12.73 -179.53,12.88 -179.75,12.97 -179.98,13.07 -180.23,13.10 -180.47,13.14 -180.72,13.11 -180.97,13.09 -181.20,13.01 -181.43,12.92 -181.64,12.79 -181.85,12.65 -182.01,12.47 -182.18,12.29 -182.30,12.07 -182.42,11.86 -182.49,11.62 -182.55,11.38 -182.56,11.13 -182.56,10.88 -182.51,10.64 -182.45,10.40 -182.34,10.18 -182.23,9.96 -182.54,8.63 -182.85,7.30 -182.75,4.14 -182.66,0.98 -182.58,-3.68 -182.51,-8.35 -182.45,-14.37 -182.39,-20.39 -182.35,-27.31 -182.30,-34.23 -182.14,-41.61 -181.97,-48.98 -181.56,-56.32 -181.15,-63.65 -180.46,-70.73 -179.76,-77.82 -178.86,-83.82 -177.96,-89.81 -177.07,-94.80 -176.18,-99.78 -175.13,-104.45 -174.09,-109.12 -173.54,-111.63 -172.99,-114.14 -172.61,-116.00 -172.24,-117.86 -172.05,-118.99 -171.86,-120.12 -171.56,-121.07 -171.27,-122.02 -171.16,-122.22 -171.05,-122.43 -170.89,-122.60 -170.73,-122.78 -170.53,-122.91 -170.33,-123.04 -170.11,-123.12 -169.89,-123.20 -169.66,-123.22 -169.42,-123.25 -169.19,-123.21 -168.96,-123.18 -168.74,-123.09 -168.52,-123.01 -168.33,-122.87 -168.14,-122.73 -167.98,-122.55 -167.83,-122.37 -167.72,-122.16 -167.62,-121.95 -167.57,-121.72 -167.51,-121.49 -167.52,-121.26 -167.52,-121.02 -167.58,-120.80 -167.64,-120.57 -167.42,-118.94 -167.20,-117.30 -167.84,-114.47 -168.47,-111.64 -169.65,-107.50 -170.83,-103.36 -172.83,-97.16 -174.83,-90.95 -177.37,-83.07 -179.91,-75.19 -182.69,-67.13 -185.47,-59.07 -188.79,-50.63 -192.11,-42.19 -195.64,-33.58 -199.17,-24.98 -202.66,-16.50 -206.15,-8.01 -209.85,0.06 -213.55,8.14 -216.85,14.44 -220.14,20.74 -222.78,25.27 -225.42,29.80 -227.88,33.66 -230.34,37.53 -232.53,40.78 -234.73,44.04 -236.48,46.43 -238.24,48.83 -239.57,50.54 -240.90,52.26 -241.73,53.48 -242.55,54.70 -243.08,55.65 -243.62,56.60 -243.78,56.76 -243.94,56.92 -244.13,57.03 -244.33,57.14 -244.55,57.21 -244.76,57.27 -244.99,57.28 -245.21,57.29 -245.43,57.25 -245.66,57.20 -245.86,57.11 -246.06,57.01 -246.24,56.87 -246.41,56.73 -246.55,56.55 -246.69,56.37 -246.78,56.16 -246.86,55.95 -246.90,55.73 -246.94,55.51 -246.92,55.28 -246.90,55.06 -246.83,54.84 -246.76,54.63 -246.64,54.44 -246.52,54.25 -244.56,52.47 -242.59,50.68 -238.67,47.23 -234.75,43.78 -228.78,39.04 -222.80,34.29 -214.78,28.92 -206.76,23.54 -196.22,17.49 -185.68,11.44 -172.83,5.10 -159.98,-1.22 -145.56,-7.01 -131.14,-12.79 -115.77,-17.56 -100.39,-22.34 -85.81,-25.88 -71.23,-29.43 -58.43,-31.53 -45.64,-33.63 -33.13,-34.62 -20.62,-35.60 -8.34,-36.02 3.92,-36.43 15.06,-36.61 26.19,-36.79 36.18,-36.86 46.17,-36.93 55.13,-36.55 64.09,-36.17 71.08,-35.35 78.08,-34.53 82.99,-33.70 87.90,-32.87 91.87,-32.01 95.83,-31.15 98.96,-30.30 102.09,-29.44 104.63,-28.60 107.17,-27.75 108.51,-27.43 109.84,-27.11 111.28,-26.72 112.73,-26.32 113.31,-24.43 113.89,-22.55 112.60,-21.92 111.32,-21.30 110.12,-21.08 108.93,-20.86 107.07,-20.62 105.22,-20.38 102.87,-20.04 100.53,-19.70 97.69,-19.10 94.84,-18.50 91.05,-17.63 87.27,-16.76 82.56,-15.71 77.85,-14.66 72.31,-13.38 66.77,-12.09 60.31,-10.58 53.85,-9.07 46.33,-7.50 38.81,-5.92 31.17,-4.54 23.52,-3.16 16.42,-2.16 9.32,-1.15 1.78,-0.29 -5.74,0.55 -12.89,1.19 -20.03,1.83 -26.48,2.14 -32.93,2.45 -41.74,2.58 -50.54,2.71 -55.53,2.76 -60.52,2.82 -64.94,2.56 -69.35,2.29 -72.82,1.67 -76.29,1.05 -79.05,0.44 -81.81,-0.15 -84.08,-0.63 -86.36,-1.10 -88.10,-1.42 -89.84,-1.74 -91.11,-1.90 -92.39,-2.07 -93.80,-2.19 -95.22,-2.32 -95.61,-2.31 -96.00,-2.30 -96.26,-2.37 -96.51,-2.44 -96.74,-2.56 -96.97,-2.69 -97.16,-2.86 -97.36,-3.04 -97.50,-3.26 -97.65,-3.48 -97.74,-3.72 -97.83,-3.97 -97.85,-4.23 -97.88,-4.49 -97.84,-4.75 -97.81,-5.01 -97.71,-5.25 -97.62,-5.49 -97.46,-5.71 -97.31,-5.92 -97.11,-6.09 -96.91,-6.26 -96.68,-6.38 -96.45,-6.50 -96.19,-6.56 -95.94,-6.62 -95.67,-6.61 -95.41,-6.61 -91.55,-6.84 -87.70,-7.07 -82.91,-7.71 -78.12,-8.34 -71.19,-9.58 -64.26,-10.83 -50.06,-14.28 -35.85,-17.73 -16.51,-23.15 2.81,-28.57 18.42,-33.77 34.03,-38.98 50.45,-47.05 66.86,-55.13 76.22,-60.69 85.58,-66.26 93.91,-72.75 102.24,-79.23 109.31,-86.19 116.39,-93.15 121.73,-100.54 127.08,-107.93 130.56,-115.53 134.03,-123.14 136.12,-130.85 138.21,-138.57 139.30,-146.36 140.40,-154.14 140.86,-161.77 141.33,-169.39 141.43,-175.49 141.52,-181.58 141.11,-186.03 140.71,-190.47 139.84,-194.05 138.97,-197.64 137.98,-200.13 137.00,-202.63 136.13,-204.19 135.26,-205.76 134.54,-206.59 133.82,-207.42 132.40,-207.76 130.98,-208.09 129.83,-208.13 128.68,-208.16 126.98,-208.08 125.28,-208.00 122.81,-207.31 120.34,-206.62 116.76,-204.69 113.19,-202.75 108.49,-199.71 103.80,-196.67 98.44,-192.99 93.08,-189.30 87.12,-184.95 81.16,-180.59 74.55,-175.54 67.94,-170.50 60.91,-165.00 53.88,-159.50 45.86,-153.14 37.84,-146.78 27.09,-136.87 16.33,-126.96 9.98,-120.75 3.62,-114.54 -2.38,-107.69 -8.40,-100.85 -14.17,-93.11 -19.95,-85.37 -25.10,-77.41 -30.25,-69.44 -34.57,-61.57 -38.89,-53.70 -42.45,-45.66 -46.00,-37.63 -48.53,-29.72 -51.06,-21.81 -52.81,-13.35 -54.56,-4.89 -55.70,3.04 -56.84,10.98 -57.45,16.66 -58.07,22.35 -58.33,26.88 -58.59,31.41 -58.70,35.97 -58.81,40.53 -58.55,44.65 -58.29,48.77 -57.25,51.67 -56.21,54.57 -52.06,56.98 -47.91,59.40 -41.94,60.76 -35.97,62.13 -28.47,62.79 -20.96,63.46 -12.05,63.54 -3.14,63.63 6.68,63.02 16.51,62.41 25.11,61.00 33.70,59.59 40.95,57.82 48.21,56.04 53.97,54.40 59.73,52.77 64.32,51.26 68.91,49.75 72.63,48.38 76.35,47.01 79.74,45.80 83.13,44.60 84.57,43.95 86.00,43.31 86.95,42.61 87.90,41.92 88.11,41.85 88.32,41.78 88.55,41.77 88.77,41.75 88.99,41.79 89.22,41.83 89.42,41.92 89.63,42.02 89.80,42.15 89.98,42.29 90.12,42.47 90.26,42.64 90.35,42.85 90.44,43.05 90.49,43.27 90.53,43.50 90.51,43.72 90.50,43.94 90.44,44.16 90.37,44.37 90.25,44.57 90.14,44.76 89.98,44.92 89.82,45.08 89.63,45.19 89.44,45.31 87.82,45.27 86.20,45.23 83.27,44.94 80.33,44.64 74.22,44.08 68.10,43.51 57.85,42.72 47.60,41.94 34.52,40.74 21.44,39.54 3.53,37.91 -14.38,36.29 -36.71,34.34 -59.04,32.40 -82.94,30.10 -106.83,27.81 -130.06,25.55 -153.30,23.29 -172.98,21.24 -192.67,19.18 -210.63,16.94 -228.59,14.71 -246.46,12.20 -264.32,9.70 -280.36,6.97 -296.40,4.23 -309.61,1.23 -322.82,-1.76 -332.87,-4.69 -342.93,-7.62 -350.04,-10.48 -357.15,-13.33 -361.91,-16.29 -366.67,-19.24 -369.57,-22.47 -372.47,-25.70 -374.02,-29.57 -375.58,-33.45 -376.14,-38.66 -376.70,-43.86 -376.07,-49.73 -375.43,-55.61 -372.10,-62.17 -368.77,-68.74 -362.52,-76.07 -356.28,-83.40 -347.12,-90.59 -337.96,-97.78 -322.71,-105.02 -307.45,-112.25 -296.86,-115.87 -286.28,-119.49 -273.53,-121.58 -260.79,-123.68 -247.19,-124.56 -233.59,-125.45 -218.50,-125.21 -203.42,-124.98 -186.25,-121.68 -169.07,-118.38 -150.48,-111.32 -131.89,-104.27 -112.78,-94.48 -93.68,-84.69 -73.73,-72.10 -53.78,-59.52 -34.02,-45.69 -14.26,-31.87 3.31,-18.45 20.89,-5.02 35.28,6.88 49.66,18.79 60.22,28.02 70.78,37.25 79.06,44.77 87.34,52.29 94.09,58.60 100.84,64.91 106.55,70.09 112.26,75.27 117.39,79.63 122.52,83.99 126.67,87.34 130.82,90.70 134.06,93.07 137.30,95.44 140.20,97.04 143.10,98.65 145.86,99.67 148.61,100.70 150.94,101.20 153.26,101.70 155.32,101.75 157.39,101.80 159.71,100.78 162.03,99.75 164.79,97.35 167.55,94.95 170.65,91.38 173.75,87.82 178.25,80.27 182.76,72.72 185.39,67.94 188.01,63.15 190.37,57.69 192.73,52.24 194.64,46.49 196.55,40.74 198.05,35.18 199.56,29.62 200.71,24.16 201.86,18.69 202.52,13.58 203.18,8.47 203.46,3.80 203.74,-0.86 203.54,-5.35 203.34,-9.84 202.26,-13.98 201.19,-18.12 199.35,-21.61 197.51,-25.10 195.15,-28.18 192.80,-31.26 189.91,-34.10 187.03,-36.94 183.72,-39.47 180.42,-41.99 176.65,-44.24 172.87,-46.49 168.53,-48.42 164.19,-50.35 158.14,-51.87 152.09,-53.39 144.49,-54.45 136.88,-55.50 129.13,-56.05 121.38,-56.61 113.23,-56.85 105.07,-57.08 96.68,-57.05 88.29,-57.02 79.59,-55.97 70.88,-54.92 60.45,-51.22 50.02,-47.52 39.31,-41.44 28.59,-35.35 19.62,-27.91 10.65,-20.48 2.95,-11.34 -4.74,-2.20 -11.59,9.08 -18.43,20.36 -25.15,35.72 -31.88,51.07 -38.78,75.88 -45.69,100.69 -49.31,117.67 -52.93,134.65 -55.46,154.06 -58.00,173.48 -59.40,190.20 -60.80,206.91 -61.39,221.30 -61.99,235.68 -62.24,247.67 -62.49,259.66 -62.60,268.69 -62.71,277.72 -62.99,286.45 -63.27,295.19 -63.96,302.37 -64.66,309.55 -65.97,315.04 -67.28,320.54 -69.30,324.46 -71.33,328.38 -74.53,330.76 -77.73,333.14 -83.03,334.51 -88.33,335.88 -95.77,336.43 -103.21,336.97 -112.67,335.87 -122.13,334.76 -133.20,330.97 -144.27,327.18 -154.68,321.83 -165.08,316.48 -173.87,310.41 -182.66,304.35 -191.14,296.74 -199.61,289.13 -208.70,278.76 -217.78,268.40 -226.46,255.99 -235.13,243.58 -240.99,232.66 -246.86,221.73 -249.87,212.35 -252.88,202.97 -254.40,193.42 -255.92,183.87 -256.63,174.82 -257.33,165.78 -257.26,157.36 -257.19,148.94 -254.46,139.80 -251.73,130.66 -247.97,124.16 -244.20,117.65 -237.51,111.13 -230.81,104.62 -222.75,100.24 -214.68,95.87 -204.90,93.55 -195.13,91.23 -183.28,90.25 -171.43,89.27 -157.11,89.17 -142.79,89.06 -125.66,90.94 -108.52,92.82 -87.38,98.35 -66.24,103.89 -43.14,111.89 -20.05,119.89 1.35,128.45 22.75,137.02 41.20,145.23 59.66,153.44 74.30,160.33 88.94,167.22 101.62,173.38 114.30,179.53 125.97,185.35 137.63,191.17 147.66,196.29 157.69,201.41 166.09,205.65 174.50,209.89 181.45,213.13 188.40,216.37 194.47,218.85 200.54,221.33 205.64,223.17 210.73,225.01 215.44,226.22 220.14,227.44 224.42,228.17 228.70,228.91 231.92,229.26 235.14,229.62 238.46,229.65 241.77,229.69 245.14,228.99 248.51,228.30 250.92,227.01 253.33,225.72 254.91,223.92 256.49,222.12 258.01,218.80 259.52,215.48 261.04,208.58 262.56,201.68 263.22,196.85 263.87,192.01 264.15,177.84 264.43,163.66 263.66,151.88 262.89,140.10 261.16,130.91 259.43,121.71 256.54,113.16 253.65,104.61 249.62,95.54 245.59,86.48 241.51,78.73 237.43,70.99 233.32,64.87 229.20,58.76 225.16,53.84 221.12,48.91 217.24,45.14 213.36,41.36 209.53,38.79 205.71,36.21 201.70,34.52 197.68,32.83 193.22,31.81 188.76,30.79 183.58,30.28 178.39,29.77 172.15,29.56 165.92,29.34 158.70,29.24 151.48,29.15 143.87,29.68 136.25,30.21 128.79,31.92 121.33,33.63 113.54,36.83 105.75,40.03 95.91,45.47 86.07,50.90 75.60,57.49 65.13,64.07 56.01,70.81 46.88,77.54 38.87,84.27 30.86,91.00 19.88,101.20 8.91,111.41 2.10,118.13 -4.71,124.86 -11.76,132.11 -18.81,139.36 -25.82,146.46 -32.84,153.56 -39.48,160.23 -46.11,166.90 -52.60,173.18 -59.09,179.46 -65.58,185.07 -72.08,190.68 -78.29,195.18 -84.50,199.68 -90.79,203.17 -97.08,206.66 -103.03,209.05 -108.97,211.44 -114.18,212.85 -119.39,214.26 -124.27,214.98 -129.15,215.69 -133.74,215.99 -138.33,216.29 -142.49,216.14 -146.65,215.99 -150.15,215.17 -153.65,214.35 -157.08,213.07 -160.50,211.80 -160.72,211.67 -160.94,211.53 -161.10,211.34 -161.26,211.14 -161.35,210.90 -161.44,210.66 -161.45,210.41 -161.46,210.16 -161.39,209.91 -161.32,209.67 -161.17,209.46 -161.03,209.25 -160.82,209.10 -160.62,208.95 -160.38,208.87 -160.13,208.79 -159.88,208.80 -159.62,208.80 -159.38,208.89 -159.14,208.97 -158.94,209.13 -158.74,209.28 -158.60,209.50 -158.47,209.71 -158.40,209.96 -158.34,210.20 -158.35,210.46 -158.37,210.71 -158.47,210.94 -158.57,211.18 -158.73,211.37 -158.90,211.56 -159.12,211.69 -159.34,211.82 -159.59,211.87 -159.84,211.92 -160.09,211.89 -160.34,211.86 -160.57,211.75 -160.80,211.64 -160.98,211.46 -161.17,211.28 -161.28,211.06 -161.40,210.83 -161.44,210.58 -161.47,210.33 -161.43,210.08 -161.38,209.83 -161.26,209.60 -161.14,209.38 -160.95,209.21 -160.76,209.03 -160.53,208.93 -160.30,208.83 -160.05,208.80 -159.79,208.78 -159.55,208.84 -159.30,208.90 -159.30,208.90 -159.30,208.90 -156.17,210.34 -153.04,211.79 -149.79,212.58 -146.54,213.37 -142.52,213.52 -138.50,213.67 -134.01,213.38 -129.52,213.09 -124.80,212.41 -120.08,211.73 -115.01,210.36 -109.94,209.00 -104.15,206.68 -98.35,204.36 -92.20,200.96 -86.04,197.55 -79.92,193.12 -73.79,188.69 -67.35,183.13 -60.91,177.57 -54.44,171.31 -47.98,165.05 -41.34,158.38 -34.71,151.71 -27.70,144.62 -20.69,137.53 -13.62,130.26 -6.55,122.99 0.28,116.24 7.12,109.49 18.14,99.24 29.17,88.99 37.24,82.21 45.32,75.43 54.53,68.64 63.74,61.85 74.27,55.23 84.81,48.60 94.78,43.10 104.75,37.60 112.75,34.34 120.74,31.07 128.40,29.33 136.07,27.59 143.79,27.06 151.51,26.52 158.76,26.62 166.01,26.71 172.33,26.94 178.65,27.16 184.00,27.70 189.35,28.23 194.02,29.32 198.70,30.41 202.94,32.22 207.17,34.03 211.18,36.75 215.19,39.48 219.17,43.36 223.15,47.25 227.27,52.27 231.38,57.29 235.57,63.53 239.76,69.77 243.87,77.59 247.99,85.41 252.06,94.59 256.14,103.77 259.07,112.50 262.01,121.23 263.76,130.57 265.51,139.92 266.28,151.82 267.05,163.71 266.77,178.04 266.48,192.36 265.80,197.31 265.13,202.25 263.52,209.41 261.91,216.58 260.18,220.22 258.46,223.85 256.53,225.93 254.60,228.01 251.83,229.43 249.06,230.86 245.41,231.59 241.75,232.31 238.31,232.27 234.86,232.23 231.55,231.86 228.25,231.50 223.87,230.74 219.48,229.98 214.66,228.73 209.84,227.48 204.70,225.62 199.55,223.76 193.42,221.26 187.29,218.75 180.30,215.49 173.31,212.23 164.91,207.99 156.50,203.75 146.48,198.63 136.46,193.52 124.81,187.71 113.15,181.90 100.49,175.75 87.82,169.60 73.20,162.72 58.59,155.84 40.18,147.65 21.77,139.45 0.43,130.91 -20.91,122.37 -43.91,114.40 -66.90,106.43 -87.86,100.93 -108.82,95.43 -125.79,93.56 -142.77,91.69 -157.00,91.79 -171.22,91.89 -182.87,92.84 -194.53,93.78 -203.99,95.99 -213.45,98.19 -221.23,102.35 -229.01,106.52 -235.48,112.76 -241.95,118.99 -245.59,125.22 -249.23,131.44 -251.90,140.21 -254.57,148.99 -254.64,157.28 -254.72,165.58 -254.02,174.52 -253.33,183.46 -251.85,192.82 -250.37,202.18 -247.46,211.34 -244.54,220.50 -238.76,231.29 -232.97,242.08 -224.39,254.37 -215.81,266.67 -206.83,276.92 -197.85,287.18 -189.51,294.68 -181.17,302.19 -172.52,308.17 -163.88,314.14 -153.65,319.42 -143.41,324.70 -132.61,328.43 -121.81,332.15 -112.60,333.25 -103.39,334.35 -96.17,333.84 -88.96,333.33 -84.08,332.15 -79.20,330.98 -76.39,329.02 -73.58,327.07 -71.70,323.49 -69.83,319.91 -68.55,314.60 -67.28,309.30 -66.58,302.20 -65.89,295.10 -65.61,286.39 -65.33,277.69 -65.22,268.65 -65.12,259.61 -64.86,247.59 -64.61,235.57 -64.01,221.13 -63.41,206.69 -62.01,189.92 -60.60,173.14 -58.05,153.62 -55.50,134.10 -51.86,117.04 -48.22,99.99 -41.25,75.00 -34.28,50.02 -27.48,34.51 -20.68,19.00 -13.72,7.55 -6.75,-3.89 1.11,-13.19 8.97,-22.50 18.13,-30.06 27.29,-37.63 38.22,-43.81 49.14,-50.00 59.85,-53.76 70.55,-57.52 79.42,-58.59 88.28,-59.65 96.72,-59.68 105.15,-59.71 113.36,-59.47 121.57,-59.23 129.41,-58.67 137.25,-58.10 144.99,-57.02 152.73,-55.94 158.99,-54.34 165.25,-52.75 169.73,-50.75 174.22,-48.75 178.12,-46.41 182.01,-44.08 185.44,-41.45 188.87,-38.81 191.88,-35.83 194.88,-32.85 197.36,-29.59 199.84,-26.32 201.78,-22.55 203.72,-18.79 204.84,-14.38 205.96,-9.97 206.16,-5.34 206.36,-0.70 206.08,4.05 205.79,8.80 205.11,14.02 204.43,19.23 203.26,24.77 202.09,30.31 200.57,35.94 199.04,41.57 197.09,47.43 195.14,53.28 192.73,58.85 190.31,64.41 187.66,69.24 185.01,74.07 180.37,81.81 175.73,89.54 172.50,93.24 169.26,96.94 166.17,99.55 163.08,102.15 160.24,103.28 157.41,104.41 155.06,104.34 152.70,104.27 150.20,103.71 147.70,103.16 144.76,102.05 141.83,100.95 138.79,99.25 135.76,97.56 132.46,95.15 129.17,92.74 125.00,89.37 120.82,85.99 115.66,81.60 110.49,77.22 104.77,72.02 99.05,66.83 92.31,60.53 85.57,54.23 77.31,46.73 69.05,39.23 58.52,30.02 47.99,20.81 33.64,8.93 19.30,-2.94 1.76,-16.33 -15.77,-29.72 -35.48,-43.51 -55.18,-57.29 -75.03,-69.82 -94.88,-82.35 -113.85,-92.08 -132.82,-101.81 -151.20,-108.81 -169.58,-115.80 -186.52,-119.08 -203.46,-122.35 -218.44,-122.59 -233.42,-122.83 -246.89,-121.96 -260.37,-121.08 -272.90,-119.04 -285.43,-117.00 -295.88,-113.44 -306.33,-109.88 -321.34,-102.79 -336.36,-95.70 -345.32,-88.70 -354.29,-81.69 -360.36,-74.61 -366.44,-67.53 -369.64,-61.39 -372.84,-55.26 -373.46,-49.69 -374.09,-44.12 -373.61,-39.25 -373.13,-34.38 -371.80,-30.89 -370.47,-27.40 -367.86,-24.43 -365.25,-21.46 -360.71,-18.62 -356.16,-15.78 -349.18,-12.96 -342.19,-10.15 -332.21,-7.25 -322.23,-4.34 -309.09,-1.36 -295.95,1.62 -279.95,4.34 -263.95,7.06 -246.11,9.56 -228.26,12.05 -210.33,14.28 -192.39,16.50 -172.71,18.54 -153.03,20.58 -129.80,22.82 -106.57,25.06 -82.69,27.33 -58.80,29.60 -36.46,31.51 -14.12,33.43 3.79,35.00 21.71,36.58 34.77,37.71 47.82,38.85 58.10,39.55 68.37,40.25 74.48,40.70 80.59,41.14 84.24,41.53 87.90,41.92 88.11,41.85 88.32,41.78 88.55,41.77 88.77,41.75 88.99,41.79 89.22,41.83 89.42,41.92 89.63,42.02 89.80,42.15 89.98,42.29 90.12,42.47 90.26,42.64 90.35,42.85 90.44,43.05 90.49,43.27 90.53,43.50 90.51,43.72 90.50,43.94 90.44,44.16 90.37,44.37 90.25,44.57 90.14,44.76 89.98,44.92 89.82,45.08 89.63,45.19 89.44,45.31 88.25,45.72 87.06,46.14 85.54,46.60 84.01,47.07 80.64,48.27 77.26,49.47 73.49,50.86 69.73,52.24 65.09,53.77 60.45,55.29 54.64,56.94 48.83,58.59 41.48,60.39 34.12,62.19 25.40,63.61 16.68,65.03 6.75,65.64 -3.17,66.26 -12.18,66.16 -21.20,66.07 -28.88,65.38 -36.56,64.68 -42.90,63.17 -49.24,61.66 -53.84,58.71 -58.44,55.76 -59.68,52.36 -60.91,48.96 -61.17,44.71 -61.44,40.46 -61.32,35.86 -61.21,31.26 -60.95,26.66 -60.68,22.06 -60.06,16.34 -59.44,10.61 -58.29,2.59 -57.14,-5.42 -55.35,-14.02 -53.57,-22.61 -50.99,-30.66 -48.42,-38.70 -44.81,-46.83 -41.21,-54.97 -36.84,-62.92 -32.47,-70.88 -27.27,-78.92 -22.08,-86.96 -16.24,-94.79 -10.41,-102.62 -4.33,-109.54 1.74,-116.46 8.12,-122.71 14.49,-128.96 25.31,-138.94 36.13,-148.93 44.15,-155.31 52.16,-161.69 59.19,-167.23 66.21,-172.76 72.81,-177.85 79.42,-182.95 85.38,-187.38 91.34,-191.80 96.68,-195.57 102.03,-199.34 106.78,-202.54 111.52,-205.74 115.37,-207.95 119.22,-210.16 122.10,-211.13 124.98,-212.10 127.01,-212.27 129.05,-212.44 130.54,-212.24 132.02,-212.04 133.32,-211.55 134.62,-211.06 135.56,-210.21 136.51,-209.36 137.16,-208.21 137.81,-207.06 138.63,-205.32 139.45,-203.59 140.48,-200.92 141.52,-198.26 142.43,-194.49 143.33,-190.71 143.74,-186.13 144.16,-181.54 144.06,-175.39 143.97,-169.23 143.50,-161.50 143.02,-153.77 141.90,-145.82 140.78,-137.88 138.62,-129.95 136.46,-122.03 132.86,-114.20 129.26,-106.36 123.78,-98.79 118.29,-91.22 111.11,-84.15 103.92,-77.08 95.47,-70.48 87.01,-63.88 77.56,-58.23 68.12,-52.58 51.54,-44.39 34.96,-36.21 19.30,-30.93 3.64,-25.65 -15.72,-20.15 -35.09,-14.65 -49.36,-11.07 -63.63,-7.50 -70.60,-6.10 -77.57,-4.71 -82.44,-3.88 -87.32,-3.04 -90.52,-2.62 -93.72,-2.20 -94.86,-2.25 -96.00,-2.30 -96.26,-2.37 -96.51,-2.44 -96.74,-2.56 -96.97,-2.69 -97.16,-2.86 -97.36,-3.04 -97.50,-3.26 -97.65,-3.48 -97.74,-3.72 -97.83,-3.97 -97.85,-4.23 -97.88,-4.49 -97.84,-4.75 -97.81,-5.01 -97.71,-5.25 -97.62,-5.49 -97.46,-5.71 -97.31,-5.92 -97.11,-6.09 -96.91,-6.26 -96.68,-6.38 -96.45,-6.50 -96.19,-6.56 -95.94,-6.62 -95.68,-6.61 -95.41,-6.61 -94.90,-6.46 -94.38,-6.31 -93.02,-5.83 -91.66,-5.36 -90.43,-4.98 -89.19,-4.59 -87.51,-4.13 -85.82,-3.68 -83.53,-3.20 -81.24,-2.73 -78.53,-2.13 -75.82,-1.53 -72.51,-0.93 -69.20,-0.33 -64.87,-0.08 -60.55,0.17 -55.56,0.11 -50.58,0.05 -41.82,-0.07 -33.06,-0.20 -26.67,-0.52 -20.28,-0.83 -13.16,-1.48 -6.05,-2.12 1.43,-2.99 8.93,-3.85 15.98,-4.87 23.02,-5.89 30.62,-7.29 38.23,-8.68 45.70,-10.29 53.18,-11.90 59.62,-13.46 66.07,-15.02 71.60,-16.38 77.14,-17.73 81.80,-18.87 86.46,-20.01 90.23,-21.02 93.99,-22.02 96.87,-22.81 99.76,-23.60 102.11,-24.19 104.46,-24.78 106.33,-25.18 108.21,-25.58 109.92,-25.44 111.64,-25.30 111.33,-24.09 111.02,-22.88 109.94,-23.52 108.86,-24.17 107.60,-24.71 106.34,-25.26 103.87,-26.08 101.39,-26.91 98.34,-27.75 95.28,-28.58 91.37,-29.43 87.47,-30.27 82.62,-31.09 77.77,-31.92 70.87,-32.73 63.98,-33.54 55.08,-33.92 46.19,-34.29 36.21,-34.22 26.23,-34.14 15.12,-33.96 4.01,-33.79 -8.19,-33.37 -20.41,-32.95 -32.81,-31.97 -45.21,-31.00 -57.90,-28.91 -70.59,-26.82 -85.09,-23.28 -99.59,-19.75 -114.85,-15.00 -130.12,-10.24 -144.43,-4.48 -158.75,1.26 -171.50,7.58 -184.26,13.90 -194.69,19.94 -205.13,25.97 -213.01,31.32 -220.90,36.67 -226.76,41.41 -232.61,46.15 -236.41,49.64 -240.21,53.13 -241.91,54.87 -243.61,56.60 -243.78,56.76 -243.94,56.92 -244.13,57.03 -244.33,57.14 -244.55,57.21 -244.76,57.27 -244.99,57.28 -245.21,57.29 -245.43,57.25 -245.66,57.20 -245.86,57.11 -246.06,57.01 -246.24,56.87 -246.41,56.73 -246.55,56.55 -246.69,56.37 -246.78,56.16 -246.86,55.95 -246.90,55.73 -246.94,55.51 -246.92,55.28 -246.90,55.06 -246.83,54.84 -246.76,54.63 -246.64,54.44 -246.52,54.25 -245.74,53.51 -244.97,52.78 -243.98,51.71 -242.99,50.64 -241.68,48.95 -240.37,47.26 -238.65,44.91 -236.93,42.56 -234.76,39.33 -232.59,36.10 -230.16,32.28 -227.74,28.45 -225.13,23.97 -222.53,19.49 -219.28,13.25 -216.03,7.01 -212.36,-1.02 -208.70,-9.06 -205.23,-17.55 -201.77,-26.04 -198.28,-34.64 -194.79,-43.24 -191.54,-51.63 -188.28,-60.03 -185.57,-68.08 -182.86,-76.12 -180.41,-84.02 -177.96,-91.92 -176.10,-98.10 -174.24,-104.27 -173.24,-108.31 -172.25,-112.34 -171.86,-115.01 -171.48,-117.67 -171.37,-119.84 -171.27,-122.02 -171.16,-122.22 -171.05,-122.43 -170.89,-122.60 -170.73,-122.78 -170.53,-122.91 -170.34,-123.04 -170.11,-123.12 -169.89,-123.20 -169.66,-123.22 -169.42,-123.25 -169.19,-123.21 -168.96,-123.18 -168.74,-123.09 -168.52,-123.01 -168.33,-122.87 -168.14,-122.73 -167.98,-122.55 -167.83,-122.37 -167.72,-122.16 -167.62,-121.95 -167.57,-121.72 -167.51,-121.50 -167.52,-121.26 -167.52,-121.02 -167.58,-120.80 -167.64,-120.57 -168.14,-119.89 -168.64,-119.21 -169.04,-118.22 -169.44,-117.23 -169.91,-115.40 -170.37,-113.58 -170.91,-111.06 -171.46,-108.53 -172.48,-103.92 -173.50,-99.31 -174.36,-94.36 -175.23,-89.41 -176.10,-83.48 -176.97,-77.55 -177.63,-70.52 -178.28,-63.50 -178.64,-56.21 -179.00,-48.93 -179.10,-41.58 -179.21,-34.23 -179.16,-27.31 -179.12,-20.39 -179.05,-14.37 -178.99,-8.35 -178.91,-3.69 -178.82,0.96 -178.70,4.09 -178.58,7.22 -178.58,8.60 -178.59,9.99 -178.70,11.10 -178.80,12.21 -178.96,12.40 -179.12,12.59 -179.32,12.73 -179.52,12.88 -179.75,12.97 -179.98,13.07 -180.23,13.10 -180.47,13.14 -180.72,13.11 -180.97,13.09 -181.20,13.01 -181.43,12.92 -181.64,12.79 -181.85,12.65 -182.01,12.47 -182.18,12.29 -182.30,12.07 -182.42,11.86 -182.49,11.62 -182.55,11.38 -182.56,11.13 -182.56,10.88 -182.51,10.64 -182.45,10.40 -182.34,10.18 -182.23,9.96 -181.91,9.67 -181.59,9.39 -180.76,8.38 -179.94,7.38 -179.19,6.19 -178.44,5.00 -177.51,2.94 -176.59,0.89 -175.26,-2.34 -173.92,-5.57 -172.43,-9.39 -170.93,-13.20 -169.54,-17.15 -168.16,-21.10 -167.00,-25.15 -165.84,-29.21 -164.71,-34.55 -163.59,-39.89 -162.78,-46.79 -161.97,-53.68 -161.84,-61.09 -161.71,-68.50 -161.86,-76.16 -162.00,-83.82 -162.35,-91.20 -162.70,-98.58 -163.51,-110.57 -164.32,-122.57 -165.57,-131.06 -166.83,-139.55 -168.54,-147.36 -170.24,-155.17 -172.66,-163.55 -175.07,-171.93 -178.13,-180.64 -181.18,-189.34 -184.80,-197.51 -188.42,-205.67 -192.31,-212.77 -196.20,-219.88 -200.05,-225.61 -203.90,-231.34 -207.70,-235.81 -211.51,-240.28 -215.10,-243.30 -218.69,-246.33 -221.84,-247.59 -224.99,-248.85 -227.81,-248.76 -230.62,-248.68 -233.28,-247.73 -235.95,-246.78 -238.68,-244.61 -241.42,-242.44 -244.45,-237.90 -247.47,-233.35 -249.79,-226.93 -252.11,-220.51 -252.67,-212.98 -253.22,-205.46 -252.64,-195.74 -252.06,-186.02 -250.70,-175.17 -249.34,-164.33 -246.71,-154.00 -244.07,-143.66 -240.09,-133.85 -236.11,-124.04 -231.23,-115.51 -226.35,-106.97 -218.83,-97.74 -211.31,-88.51 -200.54,-78.71 -189.78,-68.90 -177.15,-61.09 -164.52,-53.28 -149.98,-47.60 -135.44,-41.92 -109.56,-34.30 -83.69,-26.68 -61.36,-24.76 -39.04,-22.83 -16.52,-23.37 5.98,-23.92 27.69,-25.49 49.40,-27.06 69.21,-29.59 89.01,-32.11 106.61,-35.24 124.20,-38.38 138.58,-41.61 152.95,-44.84 163.68,-47.84 174.41,-50.85 181.61,-53.37 188.80,-55.89 193.42,-57.74 198.03,-59.59 201.35,-60.84 204.66,-62.09 204.60,-60.73 204.55,-59.38 203.41,-59.87 202.27,-60.36 200.97,-60.85 199.66,-61.34 197.64,-61.88 195.61,-62.42 192.62,-63.24 189.62,-64.05 185.20,-65.17 180.77,-66.29 175.05,-67.59 169.32,-68.90 158.81,-71.24 148.31,-73.58 137.38,-75.97 126.45,-78.35 112.73,-80.88 99.00,-83.40 83.81,-85.16 68.61,-86.91 51.31,-87.44 34.01,-87.96 12.12,-87.77 -9.77,-87.58 -34.61,-87.12 -59.46,-86.67 -83.29,-85.62 -107.12,-84.56 -129.00,-82.34 -150.88,-80.12 -169.87,-76.58 -188.86,-73.04 -203.89,-68.73 -218.91,-64.42 -230.29,-59.80 -241.67,-55.18 -250.39,-50.53 -259.12,-45.88 -265.68,-41.54 -272.25,-37.19 -276.43,-33.76 -280.60,-30.33 -282.17,-27.51 -283.74,-24.69 -282.52,-23.25 -281.31,-21.81 -279.56,-21.37 -277.80,-20.93 -275.43,-20.47 -273.06,-20.01 -270.03,-19.45 -266.99,-18.88 -263.49,-18.14 -259.99,-17.40 -256.39,-16.66 -252.78,-15.91 -247.91,-14.83 -243.04,-13.74 -236.59,-12.02 -230.14,-10.30 -218.61,-7.06 -207.08,-3.81 -197.42,-0.26 -187.77,3.29 -177.75,7.95 -167.74,12.61 -158.13,18.16 -148.52,23.71 -139.28,29.79 -130.03,35.87 -121.65,42.69 -113.27,49.50 -104.41,58.76 -95.56,68.02 -86.83,79.40 -78.10,90.78 -71.52,102.62 -64.94,114.46 -60.92,126.53 -56.90,138.59 -55.49,150.36 -54.09,162.13 -54.31,173.12 -54.54,184.11 -55.54,193.92 -56.54,203.72 -57.79,211.40 -59.03,219.07 -60.16,223.97 -61.29,228.86 -62.31,231.80 -63.33,234.74 -64.61,236.36 -65.90,237.97 -67.19,238.14 -68.49,238.31 -69.86,236.80 -71.23,235.29 -71.52,234.18 -71.81,233.06 -72.37,231.32 -72.93,229.58 -73.77,226.97 -74.61,224.37 -75.54,220.92 -76.47,217.47 -77.41,213.49 -78.35,209.51 -79.63,203.73 -80.91,197.96 -82.33,190.16 -83.74,182.37 -85.73,168.50 -87.71,154.64 -88.59,144.05 -89.47,133.46 -89.71,123.13 -89.95,112.79 -89.83,102.80 -89.72,92.81 -89.45,82.89 -89.18,72.96 -88.54,61.82 -87.91,50.69 -86.63,38.80 -85.35,26.91 -83.37,16.39 -81.40,5.87 -78.88,-2.09 -76.36,-10.05 -73.38,-15.63 -70.40,-21.21 -66.92,-25.54 -63.44,-29.87 -59.49,-33.06 -55.53,-36.25 -51.32,-37.90 -47.11,-39.56 -42.74,-39.92 -38.37,-40.28 -33.66,-40.15 -28.94,-40.01 -23.75,-39.70 -18.56,-39.39 -13.00,-38.65 -7.44,-37.91 -1.73,-36.74 3.98,-35.57 9.80,-33.93 15.62,-32.28 20.71,-30.33 25.80,-28.38 29.95,-26.28 34.10,-24.18 37.88,-21.85 41.66,-19.53 44.94,-17.05 48.22,-14.57 51.23,-11.63 54.25,-8.69 57.04,-5.40 59.83,-2.10 62.48,1.39 65.12,4.89 67.98,9.09 70.83,13.29 75.87,21.20 80.91,29.11 84.75,36.32 88.60,43.53 92.25,51.22 95.90,58.92 98.11,64.74 100.33,70.56 101.08,74.30 101.84,78.05 102.02,81.07 102.21,84.09 102.30,86.62 102.38,89.15 102.32,91.20 102.27,93.24 102.01,94.94 101.75,96.64 101.37,97.94 100.99,99.24 100.05,100.95 99.11,102.65 97.95,103.98 96.79,105.31 95.28,106.59 93.78,107.87 92.86,108.48 91.95,109.09 90.90,109.74 89.85,110.40 88.66,111.19 87.46,111.98 86.18,112.75 84.89,113.53 83.63,114.15 82.36,114.78 81.13,115.38 79.91,115.99 78.77,116.54 77.64,117.09 75.72,118.02 73.81,118.95 72.31,119.74 70.82,120.54 69.69,121.03 68.56,121.52 67.33,121.94 66.11,122.37 64.63,122.98 63.15,123.58 61.30,124.53 59.46,125.48 57.14,126.76 54.81,128.04 52.16,129.61 49.51,131.18 46.63,132.97 43.76,134.77 40.51,136.93 37.27,139.10 33.13,142.15 29.00,145.20 24.16,149.11 19.31,153.02 14.64,157.21 9.97,161.41 5.94,165.90 1.92,170.40 -1.35,175.24 -4.63,180.08 -7.07,184.85 -9.52,189.63 -11.11,194.12 -12.70,198.62 -13.44,203.07 -14.18,207.53 -14.28,212.09 -14.38,216.66 -14.28,221.37 -14.18,226.07 -14.03,230.21 -13.88,234.34 -13.64,237.21 -13.41,240.08 -13.06,242.02 -12.72,243.95 -12.21,245.56 -11.71,247.16 -10.30,247.14 -8.89,247.12 -7.19,246.81 -5.48,246.50 -4.30,246.16 -3.13,245.82 -1.90,245.44 -0.67,245.06 0.53,244.61 1.74,244.17 2.95,243.65 4.16,243.14 5.33,242.62 6.50,242.11 7.57,241.61 8.64,241.10 9.59,240.60 10.55,240.10 12.11,239.10 13.68,238.11 15.09,237.00 16.50,235.88 17.30,235.18 18.10,234.48 18.94,233.75 19.78,233.02 20.44,232.18 21.09,231.34 21.72,230.34 22.34,229.34 23.16,228.00 23.99,226.66 24.55,225.49 25.11,224.32 25.96,223.09 26.81,221.86 27.43,220.96 28.04,220.06 28.79,219.30 29.55,218.54 30.22,217.65 30.90,216.77 31.52,215.80 32.14,214.84 32.92,213.69 33.70,212.53 34.27,211.48 34.84,210.43 35.52,209.16 36.21,207.89 36.73,206.78 37.25,205.67 37.83,204.15 38.41,202.63 38.82,201.50 39.23,200.38 39.77,198.86 40.31,197.33 41.18,195.79 42.06,194.24 41.88,193.94 41.71,193.64 41.61,193.30 41.51,192.96 41.49,192.61 41.48,192.26 41.55,191.92 41.62,191.57 41.77,191.25 41.92,190.94 42.14,190.66 42.36,190.39 42.64,190.18 42.92,189.97 43.24,189.83 43.57,189.69 43.91,189.64 44.26,189.58 44.61,189.61 44.96,189.63 45.29,189.75 45.63,189.86 45.92,190.04 46.22,190.23 46.46,190.48 46.71,190.74 46.90,191.00 47.08,191.26 47.54,192.22 47.99,193.19 48.56,194.60 49.12,196.01 49.54,197.00 49.96,197.99 50.45,199.16 50.93,200.33 51.55,201.79 52.17,203.25 52.90,204.95 53.63,206.65 54.24,208.40 54.86,210.15 55.29,211.88 55.71,213.62 55.97,215.30 56.22,216.99 56.33,218.49 56.44,219.99 56.48,222.25 56.52,224.50 56.51,226.39 56.50,228.28 56.35,229.70 56.20,231.12 55.84,232.38 55.49,233.64 55.05,234.63 54.60,235.62 54.15,236.62 53.70,237.62 53.02,239.60 52.34,241.59 51.61,243.33 50.89,245.06 50.16,246.67 49.42,248.29 49.01,249.39 48.60,250.49 48.16,251.51 47.72,252.53 47.30,253.54 46.88,254.55 46.40,255.83 45.92,257.11 45.36,258.48 44.79,259.85 44.16,261.33 43.52,262.82 42.79,264.84 42.06,266.87 41.54,268.00 41.01,269.12 40.49,270.13 39.96,271.14 38.85,272.87 37.74,274.60 36.56,276.19 35.38,277.78 34.53,278.77 33.68,279.77 32.60,281.02 31.52,282.27 30.59,283.24 29.65,284.21 28.85,284.99 28.05,285.78 27.35,286.64 26.65,287.49 25.74,288.83 24.82,290.16 24.21,291.02 23.59,291.89 22.90,292.79 22.21,293.68 21.47,294.69 20.73,295.70 20.04,296.65 19.34,297.59 18.63,298.48 17.92,299.37 17.16,300.18 16.40,300.98 15.56,301.84 14.72,302.69 13.76,303.65 12.80,304.61 11.91,305.38 11.02,306.15 10.11,306.96 9.21,307.77 8.20,308.78 7.18,309.79 6.10,310.84 5.01,311.89 3.87,312.94 2.73,313.99 1.65,314.97 0.58,315.95 -0.37,316.81 -1.33,317.66 -3.31,319.66 -5.30,321.65 -6.10,322.98 -6.91,324.30 -8.07,323.24 -9.23,322.18 -8.14,322.20 -7.05,322.22 -5.86,322.40 -4.66,322.58 -3.58,322.03 -2.50,321.48 -1.22,320.85 0.05,320.21 1.28,319.51 2.50,318.81 3.79,318.11 5.07,317.42 6.24,316.70 7.41,315.99 9.03,314.78 10.66,313.58 12.10,312.56 13.54,311.54 15.16,310.37 16.77,309.19 17.65,308.44 18.53,307.68 19.44,306.89 20.35,306.10 21.23,305.32 22.11,304.54 22.97,303.74 23.83,302.94 24.66,302.10 25.48,301.25 26.27,300.33 27.06,299.42 28.43,297.69 29.80,295.96 30.94,294.30 32.08,292.64 33.20,290.91 34.33,289.18 35.27,287.59 36.22,286.01 37.18,284.67 38.13,283.34 39.21,281.79 40.29,280.24 41.32,278.95 42.36,277.66 43.27,276.62 44.18,275.58 45.26,274.44 46.33,273.31 47.20,272.43 48.07,271.55 48.89,270.50 49.72,269.45 50.37,268.60 51.02,267.74 51.84,266.57 52.66,265.40 53.65,263.92 54.64,262.43 55.80,260.55 56.95,258.68 58.27,256.60 59.58,254.52 61.06,252.33 62.54,250.15 63.84,248.17 65.14,246.20 66.39,244.23 67.65,242.27 69.36,239.90 71.07,237.53 72.69,235.26 74.30,232.99 76.58,229.52 78.86,226.04 79.95,224.94 81.04,223.84 82.65,222.14 84.25,220.45 85.67,219.21 87.08,217.96 88.47,216.98 89.86,216.00 91.43,215.00 93.01,214.01 94.73,213.09 96.46,212.18 98.54,211.16 100.62,210.14 103.20,209.16 105.79,208.18 108.80,207.51 111.82,206.83 115.38,206.49 118.95,206.15 123.07,206.08 127.20,206.00 131.58,206.03 135.96,206.06 140.89,206.12 145.82,206.19 152.28,206.34 158.74,206.50 166.48,206.86 174.22,207.22 182.59,207.80 190.96,208.38 199.38,209.27 207.81,210.15 216.97,211.77 226.13,213.39 235.78,215.56 245.44,217.74 253.80,220.14 262.15,222.53 268.58,225.17 275.01,227.81 280.15,230.68 285.30,233.55 289.66,236.41 294.02,239.27 297.57,242.23 301.13,245.20 304.00,248.22 306.87,251.24 308.66,254.18 310.44,257.11 311.16,260.09 311.87,263.07 311.89,265.98 311.90,268.90 311.62,273.94 311.35,278.98 310.84,283.24 310.32,287.50 309.64,291.23 308.95,294.96 308.13,298.23 307.30,301.49 306.34,304.83 305.38,308.17 304.16,311.85 302.94,315.53 301.35,319.38 299.76,323.22 297.86,326.85 295.95,330.48 293.67,333.90 291.39,337.32 288.86,340.28 286.34,343.24 283.65,345.52 280.96,347.80 278.06,349.14 275.16,350.47 272.09,350.84 269.02,351.21 265.30,351.07 261.58,350.92 257.34,350.45 253.11,349.98 248.30,349.01 243.49,348.04 238.18,346.60 232.87,345.17 227.01,343.04 221.14,340.92 213.62,337.76 206.09,334.60 196.61,330.37 187.13,326.15 176.51,321.19 165.88,316.24 154.56,311.04 143.24,305.84 132.32,300.82 121.40,295.80 107.66,289.33 93.93,282.85 76.05,274.84 58.18,266.84 39.11,258.77 20.04,250.71 -0.45,242.81 -20.96,234.91 -56.32,222.40 -91.68,209.88 -117.32,203.10 -142.96,196.31 -172.08,190.99 -201.20,185.67 -228.35,183.64 -255.50,181.62 -275.97,182.50 -296.43,183.38 -316.50,185.44 -336.56,187.51 -355.68,191.31 -374.80,195.12 -387.32,199.88 -399.84,204.64 -407.13,209.81 -414.42,214.98 -418.84,220.45 -423.26,225.92 -424.93,231.26 -426.61,236.60 -426.57,241.12 -426.53,245.63 -425.70,248.56 -424.87,251.49 -422.98,253.96 -421.08,256.43 -417.41,259.33 -413.75,262.22 -408.70,265.02 -403.64,267.81 -398.10,270.15 -392.56,272.49 -385.23,274.86 -377.89,277.23 -367.20,280.04 -356.50,282.84 -344.52,285.53 -332.55,288.22 -320.54,290.62 -308.53,293.01 -295.98,295.15 -283.44,297.29 -262.42,300.52 -241.41,303.75 -229.92,303.69 -218.43,303.63 -204.23,303.04 -190.04,302.46 -165.15,301.09 -140.26,299.72 -130.31,297.60 -120.36,295.48 -112.54,292.44 -104.72,289.40 -97.14,285.34 -89.55,281.28 -82.41,276.34 -75.27,271.40 -69.02,265.55 -62.77,259.70 -57.18,252.70 -51.59,245.70 -46.27,237.70 -40.94,229.70 -35.84,221.11 -30.73,212.52 -26.21,203.75 -21.70,194.97 -18.20,186.93 -14.70,178.88 -12.00,170.95 -9.29,163.01 -6.80,153.29 -4.31,143.56 -2.54,133.00 -0.77,122.43 -0.13,112.95 0.49,103.47 0.58,94.68 0.68,85.90 0.67,77.89 0.67,69.89 0.66,63.52 0.66,57.15 0.65,50.57 0.63,44.00 0.61,38.55 0.58,33.10 0.53,29.93 0.48,26.76 0.36,23.94 0.24,21.12 -0.02,18.50 -0.29,15.88 -0.63,13.17 -0.96,10.45 -1.15,7.67 -1.33,4.88 -1.44,2.46 -1.56,0.05 -1.54,-0.13 -1.52,-0.32 -1.46,-0.50 -1.40,-0.68 -1.30,-0.83 -1.20,-0.99 -1.06,-1.12 -0.92,-1.25 -0.76,-1.34 -0.60,-1.44 -0.41,-1.49 -0.23,-1.54 -0.05,-1.54 0.13,-1.55 0.32,-1.51 0.50,-1.47 0.67,-1.39 0.84,-1.31 0.99,-1.19 1.13,-1.07 1.24,-0.92 1.35,-0.77 1.43,-0.59 1.50,-0.42 1.53,-0.23 1.56,-0.05 1.56,-0.05 L 1.56,-0.05 Z"/></g><g transform="translate(270.14973958333337 157.24869791666669) rotate(0 -99.42838541666667 62.140625)" stroke="none" fill="#000000"><path d="M 1.94,0 Q 1.94,0 2.00,1.42 2.05,2.84 2.07,4.42 2.09,6.00 2.08,7.72 2.07,9.44 2.04,11.13 2.01,12.82 1.87,14.57 1.74,16.32 1.48,18.01 1.23,19.71 0.73,21.53 0.23,23.34 -0.60,25.41 -1.44,27.47 -2.34,29.61 -3.25,31.76 -4.13,33.86 -5.00,35.96 -5.95,38.27 -6.89,40.57 -8.03,43.16 -9.16,45.75 -10.23,48.05 -11.29,50.36 -12.44,52.71 -13.59,55.05 -14.95,57.76 -16.31,60.47 -17.40,62.70 -18.49,64.94 -19.49,66.97 -20.48,69.00 -21.66,71.21 -22.83,73.43 -23.99,75.49 -25.14,77.55 -26.71,80.02 -28.27,82.49 -29.27,84.12 -30.27,85.76 -31.32,87.49 -32.37,89.22 -33.57,91.03 -34.77,92.85 -35.81,94.39 -36.86,95.93 -37.85,97.34 -38.84,98.74 -40.05,100.21 -41.26,101.67 -42.55,103.08 -43.84,104.49 -45.48,106.01 -47.12,107.52 -49.15,109.11 -51.19,110.70 -53.46,112.13 -55.73,113.56 -58.25,114.75 -60.78,115.94 -63.73,116.96 -66.68,117.99 -70.11,118.90 -73.54,119.82 -77.52,120.72 -81.49,121.62 -85.82,122.45 -90.15,123.29 -94.79,123.90 -99.43,124.51 -104.31,124.82 -109.20,125.14 -114.13,125.27 -119.07,125.40 -124.38,125.46 -129.70,125.51 -135.22,125.44 -140.75,125.37 -145.97,124.85 -151.19,124.32 -156.12,123.15 -161.06,121.97 -165.26,120.54 -169.47,119.11 -172.91,117.63 -176.34,116.14 -179.19,114.63 -182.04,113.12 -184.23,111.71 -186.43,110.30 -188.19,108.93 -189.96,107.55 -191.86,105.43 -193.76,103.31 -194.85,102.12 -195.94,100.93 -196.82,99.80 -197.71,98.67 -198.37,97.51 -199.04,96.35 -199.52,95.05 -200.01,93.75 -200.33,92.42 -200.64,91.09 -200.80,89.73 -200.96,88.37 -201.03,86.92 -201.10,85.47 -201.11,83.87 -201.12,82.27 -201.13,80.74 -201.15,79.21 -201.17,77.81 -201.19,76.41 -201.10,74.91 -201.00,73.41 -200.46,71.59 -199.92,69.77 -198.87,67.88 -197.83,65.98 -196.50,64.20 -195.17,62.42 -193.57,60.70 -191.97,58.99 -190.13,57.30 -188.29,55.60 -186.36,54.01 -184.42,52.41 -182.29,50.88 -180.17,49.36 -178.03,48.04 -175.90,46.72 -174.06,45.70 -172.22,44.68 -170.28,43.74 -168.35,42.79 -166.37,41.90 -164.40,41.01 -162.71,40.24 -161.02,39.47 -159.35,38.85 -157.68,38.22 -156.00,37.73 -154.32,37.24 -152.43,36.85 -150.55,36.47 -148.46,36.22 -146.37,35.98 -144.67,35.71 -142.98,35.45 -139.70,35.30 -136.41,35.16 -133.70,35.11 -130.99,35.07 -128.82,35.06 -126.64,35.06 -124.70,35.02 -122.75,34.99 -120.57,35.01 -118.39,35.03 -116.14,35.05 -113.89,35.06 -111.84,35.06 -109.79,35.05 -108.07,34.99 -106.35,34.92 -104.90,34.86 -103.45,34.79 -102.19,34.81 -100.94,34.83 -99.87,34.92 -98.81,35.01 -96.06,35.69 -93.32,36.38 -93.06,36.63 -92.79,36.88 -92.63,37.20 -92.46,37.53 -92.41,37.88 -92.35,38.24 -92.42,38.60 -92.48,38.96 -92.65,39.28 -92.83,39.59 -93.09,39.84 -93.36,40.09 -93.69,40.23 -94.02,40.38 -94.38,40.42 -94.74,40.45 -95.10,40.37 -95.45,40.29 -95.76,40.10 -96.07,39.91 -96.30,39.63 -96.53,39.35 -96.66,39.01 -96.79,38.67 -96.80,38.31 -96.82,37.95 -96.72,37.60 -96.62,37.25 -96.41,36.95 -96.20,36.66 -95.91,36.44 -95.62,36.22 -95.28,36.11 -94.93,36.00 -94.57,36.00 -94.21,36.01 -93.86,36.13 -93.52,36.25 -93.24,36.47 -92.95,36.69 -92.75,37.00 -92.55,37.30 -92.46,37.65 -92.36,38.00 -92.39,38.36 -92.41,38.72 -92.55,39.06 -92.69,39.39 -92.93,39.67 -93.16,39.94 -93.48,40.13 -93.79,40.31 -94.14,40.38 -94.50,40.46 -94.86,40.41 -95.22,40.37 -95.55,40.21 -95.87,40.06 -95.87,40.06 -95.87,40.06 -97.01,39.81 -98.14,39.57 -99.71,39.11 -101.27,38.65 -102.39,38.46 -103.52,38.27 -104.93,38.16 -106.35,38.04 -108.07,37.97 -109.79,37.91 -111.84,37.91 -113.89,37.90 -116.13,37.93 -118.38,37.95 -120.55,37.98 -122.73,38.02 -124.66,38.01 -126.59,38.01 -128.74,38.07 -130.90,38.14 -133.55,38.27 -136.21,38.39 -139.37,38.64 -142.53,38.89 -144.23,39.07 -145.94,39.25 -147.90,39.54 -149.87,39.83 -151.66,40.19 -153.46,40.54 -155.05,40.90 -156.65,41.27 -158.26,41.75 -159.87,42.23 -161.56,42.87 -163.24,43.52 -165.17,44.41 -167.10,45.31 -168.96,46.26 -170.82,47.20 -172.59,48.18 -174.36,49.16 -176.38,50.46 -178.40,51.77 -180.39,53.28 -182.39,54.78 -184.19,56.38 -185.99,57.99 -187.64,59.66 -189.28,61.33 -190.61,62.98 -191.95,64.63 -192.97,66.29 -194.00,67.95 -194.73,69.53 -195.47,71.11 -195.87,72.45 -196.27,73.79 -196.38,75.10 -196.50,76.40 -196.52,77.80 -196.54,79.19 -196.53,80.71 -196.53,82.22 -196.51,83.78 -196.48,85.33 -196.47,86.68 -196.45,88.02 -196.42,89.16 -196.39,90.30 -196.25,91.43 -196.11,92.55 -195.86,93.64 -195.61,94.72 -195.24,95.74 -194.86,96.76 -194.22,97.90 -193.58,99.03 -192.69,100.30 -191.80,101.57 -190.06,103.53 -188.33,105.48 -186.67,106.79 -185.00,108.09 -182.90,109.45 -180.81,110.80 -178.05,112.26 -175.30,113.73 -171.96,115.18 -168.62,116.62 -164.53,118.02 -160.44,119.41 -155.68,120.56 -150.92,121.70 -145.82,122.22 -140.72,122.74 -135.22,122.80 -129.72,122.87 -124.43,122.81 -119.14,122.76 -114.26,122.62 -109.37,122.49 -104.57,122.17 -99.77,121.86 -95.22,121.26 -90.66,120.66 -86.38,119.82 -82.09,118.98 -78.17,118.07 -74.25,117.17 -70.93,116.27 -67.60,115.37 -64.80,114.37 -62.00,113.38 -59.65,112.24 -57.30,111.10 -55.19,109.73 -53.08,108.35 -51.20,106.79 -49.32,105.24 -47.81,103.72 -46.31,102.19 -45.06,100.86 -43.80,99.54 -42.62,98.15 -41.43,96.77 -40.36,95.47 -39.30,94.18 -38.20,92.75 -37.11,91.32 -35.96,89.53 -34.81,87.73 -33.73,85.97 -32.65,84.22 -31.58,82.65 -30.51,81.08 -28.99,78.66 -27.47,76.25 -26.33,74.22 -25.19,72.18 -24.05,70.00 -22.90,67.82 -21.92,65.79 -20.93,63.76 -19.85,61.50 -18.76,59.24 -17.43,56.54 -16.10,53.84 -14.99,51.51 -13.89,49.19 -12.87,46.89 -11.86,44.60 -10.80,42.03 -9.73,39.46 -8.86,37.13 -7.99,34.80 -7.22,32.66 -6.44,30.52 -5.69,28.37 -4.93,26.22 -4.33,24.25 -3.73,22.28 -3.31,20.67 -2.90,19.06 -2.64,17.53 -2.39,16.00 -2.26,14.37 -2.14,12.74 -2.11,11.09 -2.07,9.44 -2.08,7.72 -2.09,6.00 -2.07,4.42 -2.05,2.84 -2.00,1.42 -1.94,0 -1.92,-0.23 -1.89,-0.46 -1.80,-0.68 -1.72,-0.90 -1.59,-1.09 -1.45,-1.29 -1.28,-1.44 -1.10,-1.60 -0.89,-1.71 -0.69,-1.82 -0.46,-1.87 -0.23,-1.93 0.00,-1.93 0.23,-1.93 0.46,-1.87 0.69,-1.82 0.89,-1.71 1.10,-1.60 1.28,-1.44 1.45,-1.29 1.59,-1.09 1.72,-0.90 1.80,-0.68 1.89,-0.46 1.92,-0.23 1.94,0.00 1.94,0.00 L 1.94,0 Z"/></g><g transform="translate(666.7669270833334 10.699218750000057) rotate(0 0.00004999999998744897 0.00004999999998744897)" stroke="none" fill="#000000"><path d="M 1.57,-1.57 Q 1.57,-1.57 1.77,-1.27 1.98,-0.98 2.09,-0.64 2.20,-0.29 2.19,0.05 2.18,0.41 2.05,0.75 1.93,1.09 1.70,1.37 1.48,1.65 1.18,1.84 0.87,2.04 0.52,2.12 0.18,2.21 -0.17,2.18 -0.53,2.15 -0.86,2.01 -1.19,1.87 -1.46,1.63 -1.73,1.39 -1.90,1.07 -2.08,0.76 -2.15,0.41 -2.21,0.05 -2.17,-0.29 -2.12,-0.65 -1.96,-0.97 -1.80,-1.29 -1.54,-1.54 -1.29,-1.80 -0.97,-1.96 -0.65,-2.12 -0.29,-2.17 0.06,-2.21 0.41,-2.15 0.76,-2.08 1.07,-1.90 1.39,-1.73 1.63,-1.46 1.87,-1.19 2.01,-0.86 2.15,-0.53 2.18,-0.17 2.21,0.18 2.12,0.52 2.03,0.87 1.84,1.18 1.65,1.48 1.37,1.70 1.09,1.93 0.75,2.05 0.41,2.18 0.05,2.19 -0.30,2.20 -0.64,2.09 -0.98,1.98 -1.27,1.77 -1.57,1.56 -1.57,1.57 -1.57,1.57 -1.73,1.35 -1.90,1.14 -2.01,0.90 -2.12,0.66 -2.16,0.39 -2.21,0.13 -2.20,-0.13 -2.18,-0.40 -2.10,-0.65 -2.02,-0.91 -1.88,-1.14 -1.74,-1.36 -1.55,-1.55 -1.36,-1.74 -1.14,-1.88 -0.91,-2.02 -0.65,-2.10 -0.40,-2.18 -0.13,-2.20 0.13,-2.21 0.39,-2.16 0.66,-2.12 0.90,-2.01 1.14,-1.90 1.35,-1.73 1.57,-1.57 1.57,-1.57 L 1.57,-1.57 Z"/></g><g transform="translate(343.56380208333337 86.62369791666669) rotate(0 -40.807291666666686 44.60677083333333)" stroke="none" fill="#000000"><path d="M 1.56,0 Q 1.56,0 1.52,2.31 1.49,4.63 1.46,6.82 1.44,9.01 1.42,11.29 1.40,13.57 1.39,16.03 1.38,18.49 1.37,20.72 1.36,22.94 1.35,25.45 1.34,27.96 1.34,30.90 1.33,33.83 1.24,36.74 1.14,39.64 0.92,42.43 0.69,45.23 0.28,48.02 -0.12,50.81 -0.76,54.01 -1.40,57.21 -2.55,61.35 -3.70,65.50 -4.39,68.07 -5.08,70.65 -5.91,73.44 -6.73,76.23 -7.60,79.09 -8.48,81.95 -9.29,84.32 -10.09,86.68 -11.03,89.25 -11.98,91.82 -12.98,94.46 -13.97,97.11 -14.95,99.18 -15.93,101.24 -16.89,103.14 -17.85,105.04 -18.70,106.75 -19.56,108.45 -20.40,109.98 -21.25,111.50 -22.12,112.82 -22.99,114.15 -23.88,115.32 -24.77,116.49 -25.80,117.61 -26.83,118.72 -28.09,119.78 -29.36,120.84 -30.87,121.71 -32.37,122.58 -34.22,123.18 -36.07,123.78 -38.23,124.09 -40.38,124.40 -42.70,124.51 -45.01,124.63 -47.36,124.65 -49.70,124.67 -52.12,124.44 -54.54,124.21 -56.72,123.63 -58.90,123.04 -61.20,121.82 -63.50,120.60 -65.71,119.10 -67.92,117.60 -69.56,116.25 -71.20,114.90 -72.62,113.37 -74.05,111.85 -75.30,110.22 -76.55,108.59 -77.87,106.38 -79.18,104.16 -80.00,102.75 -80.82,101.33 -81.47,99.65 -82.11,97.96 -82.50,96.17 -82.89,94.38 -82.99,92.21 -83.09,90.05 -83.10,87.80 -83.11,85.56 -83.10,83.45 -83.10,81.33 -83.08,78.94 -83.06,76.54 -82.81,73.53 -82.56,70.52 -81.91,67.50 -81.26,64.48 -79.85,60.91 -78.44,57.34 -75.86,52.16 -73.28,46.98 -70.28,41.49 -67.27,36.01 -64.55,31.32 -61.83,26.64 -58.98,22.05 -56.13,17.46 -53.03,12.68 -49.94,7.90 -47.19,3.82 -44.45,-0.25 -42.29,-3.36 -40.12,-6.47 -38.22,-9.09 -36.32,-11.70 -34.62,-13.93 -32.92,-16.15 -31.49,-17.92 -30.05,-19.69 -28.94,-21.12 -27.83,-22.55 -26.98,-23.72 -26.12,-24.88 -25.50,-25.77 -24.88,-26.67 -23.88,-27.94 -22.88,-29.21 -21.88,-30.32 -20.88,-31.44 -20.08,-32.15 -19.27,-32.87 -18.45,-33.56 -17.64,-34.25 -15.70,-35.37 -13.76,-36.50 -13.32,-36.61 -12.87,-36.72 -12.42,-36.68 -11.96,-36.64 -11.54,-36.45 -11.12,-36.27 -10.78,-35.96 -10.44,-35.66 -10.22,-35.26 -9.99,-34.86 -9.91,-34.41 -9.83,-33.95 -9.89,-33.50 -9.95,-33.05 -10.16,-32.64 -10.36,-32.23 -10.69,-31.91 -11.02,-31.58 -11.43,-31.38 -11.84,-31.18 -12.29,-31.12 -12.75,-31.06 -13.20,-31.15 -13.65,-31.24 -14.04,-31.46 -14.44,-31.69 -14.75,-32.03 -15.05,-32.38 -15.23,-32.80 -15.41,-33.22 -15.44,-33.68 -15.48,-34.14 -15.37,-34.58 -15.25,-35.02 -15.01,-35.41 -14.76,-35.79 -14.40,-36.08 -14.04,-36.36 -13.61,-36.52 -13.18,-36.68 -12.72,-36.69 -12.26,-36.70 -11.82,-36.56 -11.39,-36.42 -11.02,-36.15 -10.64,-35.88 -10.38,-35.51 -10.11,-35.14 -9.98,-34.70 -9.85,-34.26 -9.86,-33.80 -9.88,-33.34 -10.04,-32.91 -10.20,-32.49 -10.49,-32.13 -10.78,-31.77 -11.16,-31.53 -11.55,-31.28 -11.55,-31.28 -11.55,-31.28 -13.40,-30.29 -15.26,-29.30 -16.47,-28.56 -17.68,-27.82 -18.77,-26.95 -19.86,-26.07 -20.95,-25.17 -22.05,-24.27 -22.83,-23.51 -23.60,-22.75 -24.61,-21.72 -25.61,-20.69 -26.81,-19.36 -28.01,-18.04 -29.42,-16.30 -30.82,-14.56 -32.51,-12.35 -34.19,-10.15 -36.07,-7.56 -37.96,-4.97 -40.11,-1.87 -42.26,1.22 -44.98,5.28 -47.71,9.35 -50.79,14.10 -53.87,18.86 -56.69,23.42 -59.52,27.98 -62.21,32.64 -64.91,37.29 -67.88,42.74 -70.85,48.18 -73.37,53.27 -75.89,58.35 -77.21,61.71 -78.53,65.06 -79.13,67.90 -79.72,70.75 -79.92,73.64 -80.13,76.53 -80.09,78.91 -80.05,81.30 -79.99,83.39 -79.94,85.47 -79.83,87.65 -79.72,89.83 -79.56,91.77 -79.39,93.72 -79.14,95.28 -78.89,96.85 -78.42,98.36 -77.96,99.88 -77.34,101.28 -76.73,102.68 -75.46,104.75 -74.19,106.81 -73.05,108.35 -71.91,109.89 -70.65,111.31 -69.39,112.73 -67.87,114.00 -66.35,115.27 -64.25,116.67 -62.16,118.06 -60.15,119.12 -58.14,120.17 -56.21,120.65 -54.29,121.13 -52.05,121.26 -49.81,121.40 -47.55,121.26 -45.30,121.13 -43.17,120.88 -41.04,120.62 -39.18,120.23 -37.33,119.83 -35.86,119.37 -34.39,118.91 -33.15,118.26 -31.91,117.62 -30.77,116.76 -29.63,115.91 -28.63,115.00 -27.63,114.08 -26.70,113.09 -25.76,112.10 -24.84,110.99 -23.91,109.88 -22.99,108.49 -22.06,107.11 -21.13,105.48 -20.20,103.85 -19.25,101.98 -18.30,100.12 -17.37,98.15 -16.43,96.18 -15.44,93.54 -14.44,90.91 -13.51,88.37 -12.58,85.83 -11.79,83.51 -11.00,81.19 -10.13,78.33 -9.25,75.48 -8.44,72.72 -7.62,69.96 -6.93,67.38 -6.24,64.79 -5.11,60.74 -3.99,56.70 -3.37,53.56 -2.74,50.43 -2.34,47.72 -1.95,45.01 -1.73,42.28 -1.51,39.56 -1.42,36.69 -1.33,33.83 -1.34,30.90 -1.34,27.96 -1.35,25.45 -1.36,22.94 -1.37,20.72 -1.38,18.49 -1.39,16.03 -1.40,13.57 -1.42,11.29 -1.44,9.01 -1.46,6.82 -1.49,4.63 -1.52,2.31 -1.56,0 -1.53,-0.18 -1.51,-0.37 -1.45,-0.54 -1.38,-0.72 -1.27,-0.88 -1.16,-1.03 -1.02,-1.16 -0.88,-1.28 -0.72,-1.37 -0.55,-1.46 -0.37,-1.50 -0.18,-1.55 0.00,-1.55 0.18,-1.55 0.37,-1.50 0.55,-1.46 0.72,-1.37 0.88,-1.28 1.02,-1.16 1.16,-1.03 1.27,-0.88 1.38,-0.72 1.45,-0.54 1.51,-0.37 1.53,-0.18 1.56,0.00 1.56,0.00 L 1.56,0 Z"/></g><g transform="translate(365.12890625 99.57421875) rotate(0 31.611979166666686 172.43098958333331)" stroke="none" fill="#000000"><path d="M 2.30,-0.33 Q 2.30,-0.33 2.52,1.00 2.73,2.34 3.59,3.90 4.44,5.47 5.20,6.33 5.97,7.20 7.31,9.09 8.65,10.98 9.57,11.85 10.49,12.71 11.41,13.44 12.33,14.16 13.27,14.86 14.22,15.55 15.47,16.43 16.73,17.32 18.17,18.34 19.62,19.35 20.84,20.07 22.06,20.80 23.12,21.32 24.17,21.84 25.96,22.43 27.75,23.02 28.92,23.12 30.09,23.21 31.15,22.60 32.21,21.98 32.34,20.65 32.47,19.31 31.02,18.98 29.57,18.65 27.92,18.18 26.28,17.72 24.48,17.49 22.68,17.27 21.61,17.22 20.55,17.17 19.40,17.14 18.25,17.10 16.39,17.11 14.53,17.13 13.50,17.80 12.47,18.47 12.09,19.48 11.71,20.48 11.37,22.56 11.02,24.64 10.95,25.78 10.88,26.91 10.84,28.09 10.80,29.27 10.82,30.46 10.84,31.65 11.00,32.74 11.16,33.83 12.03,35.53 12.90,37.22 14.02,38.41 15.14,39.59 16.80,40.50 18.45,41.41 19.69,41.83 20.92,42.26 22.18,42.38 23.43,42.50 25.02,42.51 26.62,42.52 27.97,42.12 29.32,41.72 30.50,40.79 31.68,39.85 32.40,38.83 33.11,37.81 33.53,36.53 33.94,35.26 34.08,33.61 34.22,31.97 34.25,30.12 34.28,28.27 33.61,27.02 32.94,25.77 31.58,24.89 30.22,24.02 28.98,23.79 27.75,23.57 26.37,23.52 24.99,23.46 23.71,23.41 22.42,23.35 20.97,23.89 19.51,24.43 17.76,25.85 16.01,27.28 14.97,28.39 13.93,29.51 12.99,30.72 12.04,31.92 11.28,33.17 10.52,34.41 9.81,35.82 9.10,37.23 8.48,38.75 7.87,40.26 7.38,41.78 6.88,43.30 6.48,44.80 6.08,46.30 5.77,47.73 5.47,49.16 5.25,50.50 5.04,51.83 4.94,53.10 4.84,54.36 4.81,55.62 4.78,56.88 4.78,58.16 4.77,59.44 4.79,60.65 4.80,61.85 4.87,63.86 4.94,65.86 5.16,66.99 5.38,68.13 6.41,68.77 7.45,69.41 8.62,69.66 9.79,69.90 11.15,69.87 12.51,69.84 11.71,70.71 10.92,71.58 11.40,72.94 11.89,74.29 13.35,74.86 14.82,75.43 15.40,75.18 15.98,74.92 15.64,75.16 15.30,75.40 14.92,75.55 14.53,75.70 14.12,75.76 13.71,75.81 13.30,75.77 12.89,75.73 12.50,75.58 12.11,75.44 11.77,75.21 11.43,74.98 11.15,74.67 10.87,74.37 10.67,74.00 10.48,73.64 10.37,73.24 10.27,72.84 10.26,72.43 10.26,72.01 10.35,71.61 10.45,71.21 10.63,70.84 10.82,70.47 11.09,70.16 11.36,69.84 10.93,71.62 10.51,73.39 10.55,71.84 10.60,70.29 10.99,68.79 11.37,67.30 11.76,65.97 12.16,64.64 12.70,62.96 13.24,61.28 13.79,59.55 14.33,57.82 14.87,56.06 15.42,54.29 15.85,52.62 16.28,50.94 17.01,48.81 17.73,46.68 18.11,45.25 18.50,43.82 19.02,42.21 19.55,40.59 20.08,39.03 20.62,37.46 21.26,35.89 21.90,34.31 22.54,32.88 23.18,31.44 23.78,30.18 24.38,28.92 25.21,27.49 26.05,26.07 27.17,24.45 28.29,22.84 29.60,21.02 30.91,19.20 32.20,17.35 33.50,15.50 34.69,13.71 35.89,11.93 37.12,10.04 38.36,8.14 39.70,6.08 41.05,4.01 42.38,1.77 43.71,-0.46 44.92,-2.78 46.12,-5.11 47.31,-7.51 48.51,-9.91 49.65,-12.18 50.80,-14.46 51.76,-16.41 52.73,-18.36 53.65,-20.30 54.56,-22.24 55.61,-24.32 56.66,-26.41 57.77,-28.45 58.88,-30.48 59.82,-32.26 60.76,-34.03 61.57,-35.59 62.37,-37.15 63.12,-38.58 63.87,-40.01 64.50,-41.27 65.12,-42.52 66.02,-43.99 66.91,-45.45 67.45,-46.41 67.99,-47.38 68.62,-48.27 69.24,-49.16 70.11,-50.32 70.99,-51.48 71.78,-52.24 72.57,-53.01 73.65,-53.49 74.72,-53.97 75.88,-53.46 77.04,-52.94 77.59,-51.51 78.14,-50.07 77.66,-47.98 77.18,-45.89 76.71,-44.35 76.25,-42.81 75.62,-40.77 74.99,-38.73 74.18,-35.58 73.38,-32.43 72.21,-27.86 71.03,-23.30 69.58,-17.54 68.12,-11.79 66.40,-4.59 64.69,2.59 62.85,10.86 61.01,19.12 59.05,28.63 57.08,38.15 53.94,52.68 50.79,67.21 48.63,76.85 46.47,86.48 43.92,97.51 41.36,108.53 38.38,120.55 35.40,132.57 32.20,145.40 29.00,158.24 25.76,171.02 22.52,183.80 19.31,196.16 16.09,208.52 12.88,221.64 9.66,234.76 6.62,247.75 3.57,260.74 1.43,271.24 -0.71,281.74 -2.22,290.99 -3.73,300.23 -5.04,309.66 -6.35,319.10 -7.30,328.10 -8.25,337.11 -8.75,344.67 -9.25,352.24 -9.53,357.89 -9.81,363.54 -10.05,368.12 -10.30,372.70 -10.46,376.53 -10.63,380.36 -10.70,383.22 -10.77,386.07 -10.78,388.11 -10.79,390.15 -10.68,391.47 -10.58,392.79 -10.42,393.99 -10.25,395.18 -10.17,395.66 -10.10,396.13 -10.13,396.38 -10.16,396.63 -10.25,396.86 -10.34,397.10 -10.48,397.30 -10.63,397.51 -10.82,397.68 -11.00,397.84 -11.23,397.96 -11.45,398.08 -11.69,398.14 -11.94,398.20 -12.19,398.19 -12.44,398.19 -12.69,398.13 -12.93,398.07 -13.15,397.95 -13.37,397.84 -13.56,397.67 -13.75,397.50 -13.89,397.30 -14.04,397.09 -14.12,396.85 -14.21,396.62 -14.24,396.37 -14.27,396.12 -14.37,395.02 -14.47,393.92 -14.48,392.40 -14.48,390.87 -14.35,388.73 -14.22,386.58 -13.96,382.41 -13.69,378.23 -13.37,372.02 -13.06,365.80 -12.91,358.39 -12.75,350.97 -12.67,342.01 -12.59,333.05 -12.54,321.14 -12.49,309.24 -12.46,295.13 -12.44,281.03 -12.42,267.77 -12.40,254.51 -12.39,243.27 -12.38,232.02 -12.37,221.50 -12.36,210.98 -12.35,199.88 -12.35,188.78 -12.34,177.98 -12.34,167.18 -12.34,157.47 -12.33,147.77 -12.33,140.19 -12.33,132.62 -12.33,127.33 -12.32,122.05 -12.32,117.94 -12.32,113.84 -12.32,110.65 -12.32,107.47 -12.32,105.22 -12.32,102.98 -12.42,101.40 -12.52,99.83 -11.00,97.71 -9.49,95.59 -9.53,95.83 -9.57,96.08 -9.68,96.29 -9.80,96.51 -9.97,96.68 -10.15,96.85 -10.37,96.95 -10.60,97.05 -10.84,97.08 -11.08,97.11 -11.32,97.05 -11.56,97.00 -11.77,96.87 -11.98,96.75 -12.14,96.56 -12.30,96.37 -12.39,96.15 -12.48,95.92 -12.50,95.67 -12.51,95.43 -12.44,95.19 -12.38,94.95 -12.24,94.75 -12.10,94.55 -11.91,94.40 -11.71,94.25 -11.48,94.17 -11.25,94.10 -11.00,94.10 -10.76,94.10 -10.52,94.17 -10.29,94.25 -10.10,94.40 -9.90,94.55 -9.76,94.75 -9.63,94.96 -9.56,95.19 -9.50,95.43 -9.51,95.67 -9.52,95.92 -9.61,96.15 -9.70,96.37 -9.86,96.56 -10.02,96.75 -10.23,96.87 -10.44,97.00 -10.68,97.05 -10.92,97.11 -11.16,97.08 -11.41,97.05 -11.63,96.95 -11.85,96.85 -12.03,96.68 -12.21,96.51 -12.33,96.29 -12.44,96.08 -12.48,95.83 -12.52,95.59 -12.52,95.59 -12.52,95.59 -11.00,97.71 -9.49,99.83 -9.59,101.40 -9.69,102.98 -9.69,105.22 -9.69,107.47 -9.68,110.65 -9.68,113.84 -9.68,117.94 -9.68,122.05 -9.68,127.33 -9.68,132.62 -9.68,140.19 -9.67,147.77 -9.67,157.47 -9.67,167.18 -9.66,177.98 -9.66,188.78 -9.65,199.88 -9.65,210.98 -9.64,221.50 -9.63,232.02 -9.62,243.27 -9.62,254.52 -9.60,267.77 -9.59,281.03 -9.58,295.13 -9.57,309.24 -9.56,321.15 -9.55,333.06 -9.55,342.04 -9.56,351.01 -9.61,358.47 -9.66,365.94 -9.83,372.16 -10.00,378.38 -10.07,382.48 -10.15,386.58 -10.02,388.73 -9.89,390.87 -9.89,392.40 -9.90,393.92 -10.00,395.02 -10.10,396.13 -10.13,396.38 -10.16,396.63 -10.25,396.86 -10.34,397.10 -10.48,397.30 -10.63,397.51 -10.82,397.68 -11.00,397.84 -11.23,397.96 -11.45,398.08 -11.69,398.14 -11.94,398.20 -12.19,398.19 -12.44,398.19 -12.69,398.13 -12.93,398.07 -13.15,397.95 -13.37,397.84 -13.56,397.67 -13.75,397.50 -13.89,397.30 -14.04,397.09 -14.12,396.85 -14.21,396.62 -14.24,396.37 -14.27,396.12 -14.19,395.64 -14.11,395.16 -13.93,393.96 -13.75,392.76 -13.62,391.43 -13.49,390.11 -13.44,388.06 -13.40,386.01 -13.32,383.13 -13.25,380.25 -13.09,376.40 -12.92,372.56 -12.68,367.98 -12.43,363.41 -12.15,357.74 -11.87,352.06 -11.37,344.45 -10.86,336.83 -9.91,327.78 -8.96,318.73 -7.64,309.27 -6.33,299.81 -4.81,290.51 -3.30,281.21 -1.14,270.68 1.00,260.14 4.04,247.13 7.08,234.13 10.30,220.99 13.52,207.86 16.72,195.50 19.93,183.15 23.16,170.37 26.39,157.59 29.58,144.75 32.76,131.91 35.72,119.91 38.68,107.91 41.21,96.89 43.74,85.88 45.86,76.24 47.99,66.61 51.09,52.08 54.19,37.56 56.09,28.01 58.00,18.47 59.76,10.17 61.52,1.86 63.13,-5.36 64.73,-12.60 66.04,-18.38 67.34,-24.16 68.29,-28.73 69.25,-33.30 69.78,-36.53 70.32,-39.75 70.62,-41.96 70.91,-44.16 71.25,-45.78 71.58,-47.40 72.12,-48.91 72.65,-50.43 73.62,-49.30 74.60,-48.18 73.63,-47.29 72.66,-46.39 71.37,-44.92 70.09,-43.44 69.19,-42.07 68.29,-40.71 67.52,-39.52 66.75,-38.33 65.88,-36.99 65.01,-35.66 64.09,-34.18 63.18,-32.71 62.19,-30.96 61.21,-29.22 60.13,-27.22 59.04,-25.21 58.01,-23.16 56.98,-21.10 56.07,-19.14 55.15,-17.18 54.19,-15.21 53.23,-13.24 52.11,-10.97 50.98,-8.69 49.80,-6.26 48.62,-3.83 47.40,-1.42 46.19,0.97 44.87,3.29 43.55,5.60 42.26,7.69 40.98,9.78 39.81,11.73 38.64,13.67 37.54,15.53 36.43,17.40 35.27,19.34 34.11,21.29 32.98,23.21 31.86,25.13 30.91,26.74 29.96,28.36 29.19,29.67 28.43,30.98 27.81,32.12 27.18,33.26 26.55,34.61 25.92,35.95 25.33,37.41 24.73,38.87 24.21,40.39 23.69,41.91 23.21,43.48 22.72,45.05 22.29,46.42 21.86,47.79 21.45,49.88 21.04,51.97 20.72,53.74 20.41,55.51 20.07,57.32 19.74,59.13 19.43,60.91 19.13,62.69 18.84,64.46 18.56,66.22 18.30,67.54 18.04,68.87 17.42,70.08 16.79,71.29 16.38,73.11 15.98,74.92 15.64,75.16 15.30,75.40 14.92,75.55 14.53,75.70 14.12,75.76 13.71,75.81 13.30,75.77 12.89,75.73 12.50,75.58 12.11,75.44 11.77,75.21 11.43,74.98 11.15,74.67 10.87,74.37 10.67,74.00 10.48,73.64 10.37,73.24 10.27,72.84 10.26,72.43 10.26,72.01 10.35,71.61 10.45,71.21 10.63,70.84 10.82,70.47 11.09,70.16 11.36,69.84 12.09,69.41 12.82,68.98 14.52,69.54 16.22,70.10 16.73,71.51 17.23,72.92 16.73,73.95 16.23,74.98 15.26,75.60 14.29,76.21 13.07,76.33 11.84,76.44 10.42,76.35 9.00,76.25 7.66,75.93 6.32,75.60 5.16,75.00 3.99,74.40 3.09,73.65 2.19,72.89 1.38,71.98 0.57,71.07 0.10,69.37 -0.36,67.67 -0.33,65.80 -0.30,63.94 -0.26,62.88 -0.22,61.81 -0.19,60.58 -0.15,59.35 -0.10,58.01 -0.06,56.67 0.02,55.28 0.10,53.89 0.27,52.45 0.44,51.02 0.71,49.59 0.99,48.16 1.33,46.66 1.67,45.16 2.08,43.55 2.49,41.94 2.98,40.28 3.47,38.62 4.06,36.89 4.66,35.16 5.38,33.51 6.11,31.85 6.94,30.35 7.78,28.85 8.75,27.40 9.73,25.95 10.83,24.53 11.94,23.10 13.13,21.89 14.32,20.69 15.53,19.81 16.75,18.94 18.18,18.26 19.61,17.59 21.03,17.32 22.44,17.06 23.82,17.03 25.19,16.99 26.85,17.10 28.52,17.20 29.98,17.40 31.44,17.60 33.22,18.44 35.01,19.29 36.46,20.55 37.91,21.81 38.58,22.73 39.25,23.65 39.75,24.84 40.24,26.03 40.40,27.18 40.55,28.33 40.51,30.32 40.48,32.31 40.41,33.48 40.35,34.66 40.17,35.82 39.99,36.98 39.67,38.03 39.35,39.08 38.88,40.11 38.41,41.14 37.78,42.07 37.15,43.01 36.42,43.78 35.69,44.56 34.80,45.29 33.92,46.02 32.76,46.74 31.61,47.46 30.25,47.96 28.88,48.45 27.71,48.59 26.54,48.72 24.73,48.65 22.93,48.58 20.95,48.24 18.98,47.90 17.51,47.27 16.03,46.64 14.57,45.96 13.11,45.29 12.07,44.51 11.03,43.74 10.25,42.93 9.47,42.12 8.76,41.18 8.05,40.25 7.29,38.99 6.54,37.74 5.98,36.24 5.43,34.74 5.20,33.30 4.97,31.85 4.90,30.50 4.84,29.15 4.85,27.89 4.85,26.64 4.89,25.34 4.94,24.03 5.05,22.56 5.17,21.08 5.45,19.68 5.73,18.28 6.20,17.10 6.67,15.92 7.39,14.88 8.10,13.84 9.07,13.03 10.03,12.22 12.22,11.55 14.40,10.87 16.36,10.87 18.32,10.86 19.52,10.85 20.72,10.84 21.92,10.85 23.12,10.86 24.32,10.94 25.52,11.01 26.70,11.19 27.87,11.38 28.95,11.63 30.03,11.89 31.17,12.23 32.30,12.57 33.88,13.41 35.46,14.24 36.68,15.17 37.89,16.10 38.47,17.75 39.06,19.41 38.93,20.74 38.81,22.08 38.45,23.10 38.09,24.12 37.41,25.22 36.74,26.32 35.58,27.32 34.41,28.31 33.07,28.59 31.73,28.87 30.61,28.75 29.49,28.63 27.84,28.25 26.18,27.87 25.16,27.49 24.14,27.11 23.03,26.57 21.92,26.04 20.79,25.39 19.66,24.73 18.39,23.94 17.12,23.15 15.58,22.20 14.04,21.25 12.63,20.32 11.22,19.38 10.25,18.57 9.28,17.77 8.27,16.86 7.27,15.96 6.23,14.88 5.20,13.80 3.65,12.15 2.10,10.49 1.16,9.35 0.22,8.21 -0.53,6.91 -1.29,5.60 -1.62,4.31 -1.96,3.02 -2.13,1.67 -2.30,0.33 -2.31,0.05 -2.31,-0.23 -2.25,-0.50 -2.19,-0.77 -2.07,-1.03 -1.94,-1.28 -1.76,-1.49 -1.58,-1.71 -1.35,-1.87 -1.12,-2.03 -0.86,-2.14 -0.60,-2.24 -0.32,-2.28 -0.05,-2.32 0.22,-2.30 0.50,-2.27 0.77,-2.18 1.03,-2.08 1.27,-1.93 1.50,-1.77 1.69,-1.57 1.88,-1.36 2.02,-1.11 2.16,-0.87 2.23,-0.60 2.30,-0.33 2.30,-0.33 L 2.30,-0.33 Z"/></g><g transform="translate(627.1106770833334 64.92317708333337) rotate(0 -3.73046875 68.00651041666666)" stroke="none" fill="#000000"><path d="M 1.86,-0.22 Q 1.86,-0.22 2.08,0.94 2.30,2.10 2.43,3.28 2.56,4.47 2.64,5.73 2.72,6.99 2.74,8.45 2.77,9.92 2.72,11.77 2.67,13.61 2.55,15.76 2.44,17.91 2.35,20.45 2.27,22.99 2.20,25.96 2.14,28.92 2.09,32.15 2.04,35.38 2.01,38.87 1.98,42.35 1.95,45.98 1.93,49.61 1.91,53.25 1.89,56.89 1.88,60.61 1.86,64.33 1.85,67.69 1.84,71.05 1.84,74.25 1.83,77.45 1.82,81.30 1.82,85.16 1.82,87.45 1.81,89.75 1.81,92.04 1.81,94.33 1.87,96.12 1.94,97.90 1.66,100.16 1.38,102.42 0.93,105.01 0.48,107.60 0.11,109.46 -0.24,111.31 -0.72,113.15 -1.20,114.99 -1.77,117.05 -2.33,119.10 -2.85,121.09 -3.36,123.09 -3.78,124.86 -4.20,126.63 -4.58,128.24 -4.96,129.85 -5.24,131.24 -5.51,132.64 -5.69,134.14 -5.87,135.65 -5.97,135.95 -6.08,136.25 -6.27,136.51 -6.47,136.76 -6.73,136.94 -7.00,137.12 -7.31,137.20 -7.62,137.29 -7.94,137.27 -8.26,137.25 -8.56,137.13 -8.85,137.01 -9.10,136.80 -9.34,136.59 -9.50,136.32 -9.67,136.04 -9.73,135.73 -9.80,135.42 -9.77,135.10 -9.73,134.78 -9.59,134.49 -9.46,134.20 -9.24,133.97 -9.01,133.74 -8.73,133.59 -8.45,133.44 -8.13,133.39 -7.81,133.34 -7.50,133.39 -7.18,133.44 -6.90,133.60 -6.62,133.75 -6.40,133.98 -6.18,134.21 -6.05,134.51 -5.91,134.80 -5.88,135.12 -5.85,135.44 -5.92,135.75 -5.99,136.06 -6.15,136.33 -6.32,136.61 -6.57,136.81 -6.81,137.02 -7.11,137.14 -7.41,137.25 -7.73,137.27 -8.05,137.29 -8.36,137.20 -8.66,137.11 -8.93,136.93 -9.19,136.75 -9.39,136.49 -9.58,136.24 -9.68,135.93 -9.78,135.63 -9.78,135.31 -9.78,134.99 -9.78,134.99 -9.78,134.99 -9.43,133.36 -9.08,131.74 -8.65,130.34 -8.22,128.95 -7.72,127.38 -7.23,125.82 -6.72,124.10 -6.21,122.37 -5.72,120.36 -5.22,118.35 -4.71,116.25 -4.20,114.15 -3.67,112.41 -3.14,110.67 -2.70,108.90 -2.26,107.14 -1.85,104.61 -1.43,102.09 -1.20,100.00 -0.97,97.90 -0.91,96.12 -0.84,94.33 -0.84,92.04 -0.84,89.75 -0.85,87.45 -0.85,85.16 -0.86,81.30 -0.86,77.45 -0.87,74.25 -0.87,71.05 -0.88,67.69 -0.89,64.33 -0.91,60.61 -0.92,56.89 -0.94,53.25 -0.96,49.61 -0.98,45.98 -1.01,42.35 -1.04,38.87 -1.08,35.38 -1.12,32.15 -1.17,28.92 -1.23,25.96 -1.30,22.99 -1.39,20.45 -1.47,17.92 -1.59,15.77 -1.71,13.62 -1.77,11.79 -1.83,9.95 -1.83,8.52 -1.82,7.09 -1.78,4.83 -1.74,2.58 -1.80,1.40 -1.86,0.22 -1.86,-0.00 -1.86,-0.23 -1.80,-0.45 -1.75,-0.66 -1.64,-0.86 -1.54,-1.06 -1.39,-1.23 -1.24,-1.40 -1.05,-1.53 -0.86,-1.66 -0.65,-1.74 -0.44,-1.82 -0.21,-1.84 0.00,-1.87 0.22,-1.84 0.45,-1.82 0.66,-1.74 0.87,-1.65 1.06,-1.53 1.24,-1.40 1.39,-1.23 1.54,-1.06 1.65,-0.86 1.75,-0.66 1.81,-0.44 1.86,-0.22 1.86,-0.22 L 1.86,-0.22 Z"/></g><g transform="translate(656.2591145833334 88.18359375) rotate(0 10.144531249999943 50.43489583333336)" stroke="none" fill="#000000"><path d="M 1.87,-0.04 Q 1.87,-0.04 1.85,2.21 1.83,4.47 1.90,6.09 1.97,7.72 1.94,9.73 1.91,11.75 1.89,13.76 1.86,15.77 1.87,17.62 1.89,19.48 1.97,21.39 2.05,23.29 2.26,25.09 2.48,26.88 2.87,28.53 3.27,30.19 3.84,31.86 4.42,33.53 5.08,35.11 5.73,36.69 6.48,38.26 7.23,39.84 8.12,41.39 9.02,42.94 9.92,44.28 10.81,45.62 11.57,46.61 12.33,47.60 13.08,48.50 13.84,49.39 14.62,50.20 15.40,51.00 16.83,52.17 18.25,53.33 19.39,53.86 20.53,54.38 21.63,54.55 22.73,54.72 23.79,54.74 24.86,54.75 25.38,53.44 25.90,52.12 26.83,49.35 27.76,46.58 28.35,44.36 28.94,42.15 29.35,39.19 29.76,36.23 29.98,32.90 30.19,29.58 30.31,26.28 30.43,22.97 30.50,20.37 30.57,17.76 30.61,15.63 30.66,13.50 30.37,11.40 30.08,9.30 29.40,7.42 28.73,5.54 27.87,4.19 27.01,2.84 26.17,2.00 25.34,1.16 23.84,0.55 22.35,-0.04 20.35,-0.05 18.34,-0.06 16.87,0.72 15.39,1.52 14.22,2.57 13.06,3.62 11.65,5.22 10.24,6.82 8.62,9.08 7.00,11.34 5.30,14.06 3.60,16.79 2.01,20.05 0.41,23.30 -1.11,27.31 -2.65,31.31 -4.03,35.75 -5.41,40.19 -6.42,44.47 -7.44,48.76 -8.14,53.08 -8.84,57.41 -9.31,61.89 -9.77,66.37 -9.99,71.56 -10.21,76.75 -10.30,79.33 -10.40,81.91 -10.44,84.20 -10.48,86.49 -10.50,88.95 -10.52,91.42 -10.53,93.63 -10.54,95.84 -10.46,97.52 -10.38,99.21 -10.29,100.93 -10.21,102.66 -10.25,102.92 -10.29,103.19 -10.42,103.43 -10.55,103.67 -10.74,103.85 -10.94,104.04 -11.18,104.15 -11.43,104.26 -11.70,104.29 -11.97,104.32 -12.23,104.26 -12.49,104.21 -12.73,104.07 -12.96,103.93 -13.13,103.72 -13.31,103.52 -13.40,103.26 -13.50,103.01 -13.52,102.74 -13.53,102.47 -13.46,102.21 -13.39,101.95 -13.24,101.73 -13.08,101.51 -12.87,101.34 -12.65,101.18 -12.40,101.10 -12.14,101.01 -11.87,101.01 -11.60,101.01 -11.35,101.10 -11.09,101.18 -10.88,101.35 -10.66,101.51 -10.51,101.73 -10.36,101.96 -10.29,102.22 -10.22,102.48 -10.23,102.75 -10.25,103.02 -10.35,103.27 -10.45,103.52 -10.62,103.72 -10.80,103.93 -11.03,104.07 -11.26,104.21 -11.52,104.27 -11.79,104.32 -12.05,104.29 -12.32,104.26 -12.57,104.15 -12.81,104.04 -13.01,103.85 -13.20,103.66 -13.33,103.43 -13.46,103.19 -13.50,102.92 -13.54,102.65 -13.54,102.65 -13.54,102.65 -13.45,100.93 -13.36,99.20 -13.28,97.52 -13.19,95.83 -13.19,93.62 -13.18,91.41 -13.17,88.92 -13.15,86.44 -13.12,84.13 -13.09,81.82 -13.00,79.23 -12.92,76.64 -12.71,71.37 -12.50,66.10 -12.05,61.53 -11.59,56.97 -10.90,52.54 -10.21,48.11 -9.21,43.72 -8.22,39.33 -6.86,34.79 -5.51,30.24 -3.99,26.09 -2.48,21.93 -0.91,18.49 0.66,15.04 2.28,12.16 3.90,9.28 5.45,6.78 7.00,4.27 8.42,2.27 9.85,0.27 11.31,-1.18 12.78,-2.64 14.28,-3.47 15.79,-4.31 17.12,-4.51 18.44,-4.71 19.71,-4.61 20.98,-4.52 22.38,-4.26 23.78,-3.99 25.00,-3.40 26.22,-2.82 27.12,-1.94 28.02,-1.07 28.86,0.11 29.70,1.31 30.54,2.94 31.37,4.58 32.16,6.72 32.94,8.87 33.29,11.19 33.64,13.51 33.67,15.65 33.69,17.79 33.71,20.41 33.74,23.03 33.74,26.37 33.75,29.72 33.70,33.17 33.65,36.62 33.44,39.81 33.22,42.99 32.89,45.43 32.56,47.87 31.87,51.13 31.18,54.39 30.33,56.30 29.48,58.20 28.18,59.21 26.87,60.22 24.98,60.35 23.09,60.48 21.56,60.15 20.02,59.82 18.35,59.08 16.67,58.33 15.09,56.99 13.52,55.65 12.76,54.82 12.01,53.98 11.20,52.98 10.39,51.97 9.68,50.92 8.98,49.87 8.31,48.75 7.65,47.64 6.77,46.20 5.89,44.76 4.91,43.07 3.93,41.38 3.16,39.71 2.39,38.03 1.74,36.35 1.09,34.67 0.47,32.81 -0.15,30.95 -0.53,29.11 -0.92,27.26 -1.12,25.36 -1.32,23.46 -1.42,21.47 -1.53,19.48 -1.52,17.63 -1.51,15.78 -1.54,13.77 -1.58,11.76 -1.62,9.77 -1.67,7.77 -1.64,6.16 -1.62,4.55 -1.75,2.29 -1.87,0.04 -1.85,-0.18 -1.83,-0.40 -1.75,-0.62 -1.68,-0.83 -1.55,-1.02 -1.43,-1.21 -1.26,-1.36 -1.10,-1.52 -0.90,-1.63 -0.70,-1.74 -0.48,-1.80 -0.26,-1.85 -0.04,-1.86 0.18,-1.87 0.40,-1.82 0.62,-1.77 0.82,-1.67 1.03,-1.57 1.20,-1.42 1.37,-1.27 1.51,-1.09 1.64,-0.91 1.72,-0.70 1.81,-0.49 1.84,-0.26 1.87,-0.04 1.87,-0.04 L 1.87,-0.04 Z"/></g></svg>
